# Blender v3.4.1 OBJ File: 'untitled.blend'
# www.blender.org
mtllib Line033.mtl
o Line033_Mesh.069
v 0.146400 1.036146 0.322007
v 0.151374 1.036146 0.496854
v 0.180174 1.036146 0.496034
v 0.178734 1.036146 0.445438
v 0.170549 1.036146 0.445670
v 0.167014 1.036146 0.321421
v 0.146400 1.021164 0.322007
v 0.151374 1.021164 0.496854
v 0.180174 1.021164 0.496034
v 0.178734 1.021164 0.445438
v 0.170549 1.021164 0.445670
v 0.167014 1.021164 0.321421
v 0.170074 1.035444 0.446202
v 0.170549 1.033337 0.445670
v 0.170430 1.034566 0.445803
v 0.166539 1.035444 0.321952
v 0.167014 1.033337 0.321421
v 0.166895 1.034566 0.321554
v 0.146905 1.035444 0.322511
v 0.146400 1.033337 0.322007
v 0.146526 1.034566 0.322133
v 0.151850 1.035444 0.496322
v 0.151374 1.033337 0.496854
v 0.151493 1.034566 0.496721
v 0.179669 1.035444 0.495530
v 0.180174 1.033337 0.496034
v 0.180047 1.034566 0.495908
v 0.178259 1.035444 0.445969
v 0.178734 1.033337 0.445438
v 0.178615 1.034566 0.445571
v 0.168647 1.036146 0.447797
v 0.169479 1.035971 0.446867
v 0.165112 1.036146 0.323547
v 0.165944 1.035971 0.322617
v 0.148419 1.036146 0.324022
v 0.147536 1.035971 0.323141
v 0.153276 1.036146 0.494727
v 0.152444 1.035971 0.495657
v 0.178154 1.036146 0.494019
v 0.179038 1.035971 0.494901
v 0.176832 1.036146 0.447564
v 0.177664 1.035971 0.446634
vn 0.0476 0.9976 -0.0512
vn 0.0746 0.9945 -0.0732
vn -0.0786 0.9945 -0.0688
vn -0.0746 0.9945 0.0732
vn 0.0786 0.9945 0.0689
vn 0.0000 -1.0000 0.0000
vn 0.6855 0.0744 -0.7242
vn 0.6867 0.0000 -0.7269
vn 0.6845 0.0697 -0.7257
vn -0.7269 0.0000 -0.6867
vn -0.7246 0.0697 -0.6856
vn -0.6867 0.0000 0.7269
vn -0.6845 0.0697 0.7257
vn 0.7269 0.0000 0.6867
vn 0.7246 0.0697 0.6856
vn 0.1664 0.9710 -0.1717
vn 0.2885 0.9119 -0.2920
vn 0.4408 0.7736 -0.4552
vn 0.5195 0.6593 -0.5436
vn -0.3046 0.9119 -0.2752
vn -0.5495 0.6593 -0.5132
vn -0.2885 0.9119 0.2920
vn -0.5195 0.6592 0.5436
vn 0.3046 0.9119 0.2752
vn 0.5495 0.6592 0.5132
vn 0.6517 0.3129 -0.6909
vn 0.6407 0.3716 -0.6719
vn -0.6900 0.3129 -0.6527
vn -0.6517 0.3128 0.6909
vn 0.6900 0.3128 0.6527
usemtl Material_#2092
s 1
f 31//1 33//2 35//3 37//4 39//5 41//2
f 11//6 10//6 9//6 8//6 7//6 12//6
f 14//7 11//8 12//8 17//9
f 17//9 12//8 7//10 20//11
f 20//11 7//10 8//12 23//13
f 23//13 8//12 9//14 26//15
f 26//15 9//14 10//8 29//9
f 29//9 10//8 11//8 14//7
f 33//2 31//1 32//16 34//17
f 34//17 32//16 13//18 16//19
f 35//3 33//2 34//17 36//20
f 36//20 34//17 16//19 19//21
f 37//4 35//3 36//20 38//22
f 38//22 36//20 19//21 22//23
f 39//5 37//4 38//22 40//24
f 40//24 38//22 22//23 25//25
f 41//2 39//5 40//24 42//17
f 42//17 40//24 25//25 28//19
f 31//1 41//2 42//17 32//16
f 32//16 42//17 28//19 13//18
f 14//7 17//9 18//26 15//27
f 15//27 18//26 16//19 13//18
f 17//9 20//11 21//28 18//26
f 18//26 21//28 19//21 16//19
f 20//11 23//13 24//29 21//28
f 21//28 24//29 22//23 19//21
f 23//13 26//15 27//30 24//29
f 24//29 27//30 25//25 22//23
f 26//15 29//9 30//26 27//30
f 27//30 30//26 28//19 25//25
f 29//9 14//7 15//27 30//26
f 30//26 15//27 13//18 28//19
