# Blender v3.4.1 OBJ File: 'untitled.blend'
# www.blender.org
mtllib Line047.mtl
o Line047_Mesh.083
v 0.365931 1.036146 0.315761
v 0.370905 1.036146 0.490608
v 0.342106 1.036146 0.491427
v 0.340667 1.036146 0.440830
v 0.348852 1.036146 0.440598
v 0.345316 1.036146 0.316348
v 0.365931 1.021163 0.315761
v 0.370905 1.021164 0.490608
v 0.342106 1.021164 0.491427
v 0.340667 1.021164 0.440830
v 0.348852 1.021164 0.440598
v 0.345316 1.021163 0.316348
v 0.349356 1.035444 0.441101
v 0.348852 1.033337 0.440598
v 0.348978 1.034566 0.440723
v 0.345821 1.035444 0.316852
v 0.345316 1.033337 0.316348
v 0.345443 1.034566 0.316474
v 0.365455 1.035444 0.316293
v 0.365931 1.033337 0.315761
v 0.365812 1.034566 0.315894
v 0.370400 1.035444 0.490104
v 0.370905 1.033337 0.490608
v 0.370779 1.034566 0.490482
v 0.342581 1.035444 0.490895
v 0.342106 1.033337 0.491427
v 0.342225 1.034566 0.491294
v 0.341171 1.035444 0.441334
v 0.340667 1.033337 0.440830
v 0.340793 1.034566 0.440956
v 0.350871 1.036146 0.442613
v 0.349987 1.035971 0.441731
v 0.347336 1.036146 0.318363
v 0.346452 1.035971 0.317481
v 0.364029 1.036146 0.317888
v 0.364861 1.035971 0.316958
v 0.368886 1.036146 0.488592
v 0.369769 1.035971 0.489474
v 0.344008 1.036146 0.489300
v 0.343176 1.035971 0.490231
v 0.342686 1.036146 0.442846
v 0.341802 1.035971 0.441964
vn -0.0504 0.9976 -0.0484
vn -0.0786 0.9945 -0.0689
vn -0.0746 0.9945 0.0732
vn 0.0786 0.9945 0.0689
vn 0.0746 0.9945 -0.0732
vn -0.0786 0.9945 -0.0688
vn 0.0000 -1.0000 0.0000
vn -0.7256 0.0744 -0.6841
vn -0.7246 0.0697 -0.6856
vn -0.7269 -0.0000 -0.6867
vn 0.6845 0.0697 -0.7257
vn 0.6867 -0.0000 -0.7269
vn 0.7246 0.0697 0.6856
vn 0.7269 0.0000 0.6867
vn -0.6845 0.0697 0.7257
vn -0.6867 0.0000 0.7269
vn -0.3046 0.9119 -0.2752
vn -0.1758 0.9710 -0.1620
vn -0.5495 0.6593 -0.5132
vn -0.4660 0.7736 -0.4294
vn 0.2885 0.9118 -0.2920
vn 0.5195 0.6593 -0.5436
vn 0.3047 0.9118 0.2752
vn 0.5495 0.6593 0.5132
vn -0.2885 0.9118 0.2921
vn -0.5195 0.6593 0.5436
vn -0.3047 0.9118 -0.2752
vn -0.6779 0.3716 -0.6344
vn -0.6900 0.3129 -0.6527
vn 0.6517 0.3129 -0.6909
vn 0.6900 0.3129 0.6527
vn -0.6517 0.3129 0.6909
usemtl Material_#2092
s 1
f 31//1 41//2 39//3 37//4 35//5 33//6
f 11//7 12//7 7//7 8//7 9//7 10//7
f 14//8 17//9 12//10 11//10
f 17//9 20//11 7//12 12//10
f 20//11 23//13 8//14 7//12
f 23//13 26//15 9//16 8//14
f 26//15 29//9 10//10 9//16
f 29//9 14//8 11//10 10//10
f 33//6 34//17 32//18 31//1
f 34//17 16//19 13//20 32//18
f 35//5 36//21 34//17 33//6
f 36//21 19//22 16//19 34//17
f 37//4 38//23 36//21 35//5
f 38//23 22//24 19//22 36//21
f 39//3 40//25 38//23 37//4
f 40//25 25//26 22//24 38//23
f 41//2 42//27 40//25 39//3
f 42//27 28//19 25//26 40//25
f 31//1 32//18 42//27 41//2
f 32//18 13//20 28//19 42//27
f 14//8 15//28 18//29 17//9
f 15//28 13//20 16//19 18//29
f 17//9 18//29 21//30 20//11
f 18//29 16//19 19//22 21//30
f 20//11 21//30 24//31 23//13
f 21//30 19//22 22//24 24//31
f 23//13 24//31 27//32 26//15
f 24//31 22//24 25//26 27//32
f 26//15 27//32 30//29 29//9
f 27//32 25//26 28//19 30//29
f 29//9 30//29 15//28 14//8
f 30//29 28//19 13//20 15//28
