# Blender v3.4.1 OBJ File: 'untitled.blend'
# www.blender.org
mtllib Line034.mtl
o Line034_Mesh.070
v 0.240466 1.036146 0.319331
v 0.245441 1.036146 0.494177
v 0.274240 1.036146 0.493358
v 0.272800 1.036146 0.442761
v 0.264615 1.036146 0.442994
v 0.261080 1.036146 0.318744
v 0.240466 1.021164 0.319331
v 0.245441 1.021164 0.494177
v 0.274240 1.021164 0.493358
v 0.272800 1.021164 0.442761
v 0.264615 1.021164 0.442994
v 0.261080 1.021164 0.318744
v 0.264140 1.035444 0.443526
v 0.264615 1.033337 0.442994
v 0.264497 1.034566 0.443127
v 0.260605 1.035444 0.319276
v 0.261080 1.033337 0.318744
v 0.260961 1.034566 0.318877
v 0.240971 1.035444 0.319835
v 0.240466 1.033337 0.319331
v 0.240592 1.034566 0.319457
v 0.245916 1.035444 0.493646
v 0.245441 1.033337 0.494177
v 0.245560 1.034566 0.494044
v 0.273735 1.035444 0.492854
v 0.274240 1.033337 0.493358
v 0.274114 1.034566 0.493232
v 0.272325 1.035444 0.443293
v 0.272800 1.033337 0.442761
v 0.272682 1.034566 0.442894
v 0.262714 1.036146 0.445121
v 0.263546 1.035971 0.444191
v 0.259179 1.036146 0.320871
v 0.260011 1.035971 0.319941
v 0.242486 1.036146 0.321346
v 0.241602 1.035971 0.320464
v 0.247342 1.036146 0.492051
v 0.246510 1.035971 0.492981
v 0.272221 1.036146 0.491343
v 0.273104 1.035971 0.492224
v 0.270899 1.036146 0.444888
v 0.271731 1.035971 0.443958
vn 0.0476 0.9976 -0.0512
vn 0.0746 0.9945 -0.0732
vn -0.0786 0.9945 -0.0688
vn -0.0746 0.9945 0.0732
vn 0.0786 0.9945 0.0689
vn 0.0746 0.9945 -0.0733
vn 0.0000 -1.0000 0.0000
vn 0.6855 0.0744 -0.7242
vn 0.6867 0.0000 -0.7269
vn 0.6845 0.0697 -0.7257
vn -0.7269 0.0000 -0.6867
vn -0.7246 0.0697 -0.6856
vn -0.6867 0.0000 0.7269
vn -0.6845 0.0697 0.7257
vn 0.7269 0.0000 0.6867
vn 0.7246 0.0697 0.6856
vn 0.1664 0.9710 -0.1717
vn 0.2885 0.9119 -0.2920
vn 0.4408 0.7736 -0.4552
vn 0.5195 0.6593 -0.5436
vn -0.3046 0.9119 -0.2751
vn -0.5495 0.6593 -0.5132
vn -0.2885 0.9119 0.2920
vn -0.5195 0.6593 0.5436
vn 0.3046 0.9119 0.2752
vn 0.5495 0.6593 0.5132
vn 0.6517 0.3129 -0.6909
vn 0.6407 0.3716 -0.6719
vn -0.6900 0.3129 -0.6527
vn -0.6517 0.3129 0.6909
vn 0.6900 0.3128 0.6527
usemtl Material_#2092
s 1
f 31//1 33//2 35//3 37//4 39//5 41//6
f 11//7 10//7 9//7 8//7 7//7 12//7
f 14//8 11//9 12//9 17//10
f 17//10 12//9 7//11 20//12
f 20//12 7//11 8//13 23//14
f 23//14 8//13 9//15 26//16
f 26//16 9//15 10//9 29//10
f 29//10 10//9 11//9 14//8
f 33//2 31//1 32//17 34//18
f 34//18 32//17 13//19 16//20
f 35//3 33//2 34//18 36//21
f 36//21 34//18 16//20 19//22
f 37//4 35//3 36//21 38//23
f 38//23 36//21 19//22 22//24
f 39//5 37//4 38//23 40//25
f 40//25 38//23 22//24 25//26
f 41//6 39//5 40//25 42//18
f 42//18 40//25 25//26 28//20
f 31//1 41//6 42//18 32//17
f 32//17 42//18 28//20 13//19
f 14//8 17//10 18//27 15//28
f 15//28 18//27 16//20 13//19
f 17//10 20//12 21//29 18//27
f 18//27 21//29 19//22 16//20
f 20//12 23//14 24//30 21//29
f 21//29 24//30 22//24 19//22
f 23//14 26//16 27//31 24//30
f 24//30 27//31 25//26 22//24
f 26//16 29//10 30//27 27//31
f 27//31 30//27 28//20 25//26
f 29//10 14//8 15//28 30//27
f 30//27 15//28 13//19 28//20
