# Blender v3.4.1 OBJ File: 'untitled.blend'
# www.blender.org
mtllib Line042.mtl
o Line042_Mesh.078
v -0.198884 1.036146 0.331831
v -0.193909 1.036146 0.506677
v -0.222709 1.036146 0.507497
v -0.224148 1.036146 0.456900
v -0.215963 1.036146 0.456667
v -0.219498 1.036146 0.332417
v -0.198884 1.021163 0.331831
v -0.193909 1.021164 0.506677
v -0.222709 1.021164 0.507497
v -0.224148 1.021164 0.456900
v -0.215963 1.021164 0.456667
v -0.219498 1.021163 0.332417
v -0.215458 1.035444 0.457171
v -0.215963 1.033337 0.456667
v -0.215837 1.034566 0.456793
v -0.218993 1.035444 0.332921
v -0.219498 1.033337 0.332417
v -0.219372 1.034566 0.332543
v -0.199359 1.035444 0.332363
v -0.198884 1.033337 0.331831
v -0.199003 1.034566 0.331964
v -0.194414 1.035444 0.506173
v -0.193909 1.033337 0.506677
v -0.194036 1.034566 0.506551
v -0.222233 1.035444 0.506965
v -0.222709 1.033337 0.507497
v -0.222590 1.034566 0.507364
v -0.223643 1.035444 0.457404
v -0.224148 1.033337 0.456900
v -0.224022 1.034566 0.457026
v -0.213944 1.036146 0.458682
v -0.214827 1.035971 0.457801
v -0.217479 1.036146 0.334433
v -0.218362 1.035971 0.333551
v -0.200786 1.036146 0.333958
v -0.199954 1.035971 0.333027
v -0.195929 1.036146 0.504662
v -0.195045 1.035971 0.505544
v -0.220807 1.036146 0.505370
v -0.221639 1.035971 0.506300
v -0.222129 1.036146 0.458915
v -0.223012 1.035971 0.458034
vn -0.0504 0.9976 -0.0484
vn -0.0786 0.9945 -0.0689
vn -0.0746 0.9945 0.0732
vn 0.0786 0.9945 0.0689
vn 0.0746 0.9945 -0.0732
vn 0.0000 -1.0000 0.0000
vn -0.7256 0.0744 -0.6841
vn -0.7246 0.0697 -0.6856
vn -0.7269 -0.0000 -0.6867
vn 0.6845 0.0697 -0.7257
vn 0.6867 -0.0000 -0.7269
vn 0.7246 0.0697 0.6856
vn 0.7269 -0.0000 0.6867
vn -0.6845 0.0697 0.7257
vn -0.6867 0.0000 0.7269
vn -0.3046 0.9118 -0.2752
vn -0.1758 0.9710 -0.1620
vn -0.5495 0.6593 -0.5132
vn -0.4660 0.7736 -0.4294
vn 0.2885 0.9118 -0.2921
vn 0.5195 0.6593 -0.5436
vn 0.3047 0.9118 0.2752
vn 0.5495 0.6593 0.5132
vn -0.2885 0.9118 0.2921
vn -0.5195 0.6593 0.5436
vn -0.6778 0.3717 -0.6343
vn -0.6900 0.3129 -0.6527
vn 0.6517 0.3129 -0.6909
vn 0.6900 0.3129 0.6527
vn -0.6517 0.3129 0.6909
usemtl Material_#2092
s 1
f 31//1 41//2 39//3 37//4 35//5 33//2
f 11//6 12//6 7//6 8//6 9//6 10//6
f 14//7 17//8 12//9 11//9
f 17//8 20//10 7//11 12//9
f 20//10 23//12 8//13 7//11
f 23//12 26//14 9//15 8//13
f 26//14 29//8 10//9 9//15
f 29//8 14//7 11//9 10//9
f 33//2 34//16 32//17 31//1
f 34//16 16//18 13//19 32//17
f 35//5 36//20 34//16 33//2
f 36//20 19//21 16//18 34//16
f 37//4 38//22 36//20 35//5
f 38//22 22//23 19//21 36//20
f 39//3 40//24 38//22 37//4
f 40//24 25//25 22//23 38//22
f 41//2 42//16 40//24 39//3
f 42//16 28//18 25//25 40//24
f 31//1 32//17 42//16 41//2
f 32//17 13//19 28//18 42//16
f 14//7 15//26 18//27 17//8
f 15//26 13//19 16//18 18//27
f 17//8 18//27 21//28 20//10
f 18//27 16//18 19//21 21//28
f 20//10 21//28 24//29 23//12
f 21//28 19//21 22//23 24//29
f 23//12 24//29 27//30 26//14
f 24//29 22//23 25//25 27//30
f 26//14 27//30 30//27 29//8
f 27//30 25//25 28//18 30//27
f 29//8 30//27 15//26 14//7
f 30//27 28//18 13//19 15//26
