# Blender v3.4.1 OBJ File: 'untitled.blend'
# www.blender.org
mtllib Line045.mtl
o Line045_Mesh.081
v 0.147114 1.036146 0.321987
v 0.152089 1.036146 0.496833
v 0.123290 1.036146 0.497653
v 0.121850 1.036146 0.447056
v 0.130035 1.036146 0.446823
v 0.126500 1.036146 0.322573
v 0.147114 1.021163 0.321987
v 0.152089 1.021164 0.496833
v 0.123290 1.021164 0.497653
v 0.121850 1.021164 0.447056
v 0.130035 1.021164 0.446823
v 0.126500 1.021163 0.322573
v 0.130540 1.035444 0.447327
v 0.130035 1.033337 0.446823
v 0.130161 1.034566 0.446949
v 0.127005 1.035444 0.323077
v 0.126500 1.033337 0.322573
v 0.126626 1.034566 0.322699
v 0.146639 1.035444 0.322519
v 0.147114 1.033337 0.321987
v 0.146995 1.034566 0.322120
v 0.151584 1.035444 0.496329
v 0.152089 1.033337 0.496833
v 0.151963 1.034566 0.496707
v 0.123765 1.035444 0.497121
v 0.123290 1.033337 0.497653
v 0.123408 1.034566 0.497520
v 0.122355 1.035444 0.447560
v 0.121850 1.033337 0.447056
v 0.121976 1.034566 0.447182
v 0.132054 1.036146 0.448838
v 0.131171 1.035971 0.447957
v 0.128519 1.036146 0.324589
v 0.127636 1.035971 0.323707
v 0.145213 1.036146 0.324114
v 0.146045 1.035971 0.323183
v 0.150069 1.036146 0.494818
v 0.150953 1.035971 0.495700
v 0.125191 1.036146 0.495526
v 0.124359 1.035971 0.496456
v 0.123869 1.036146 0.449071
v 0.122986 1.035971 0.448190
vn -0.0504 0.9976 -0.0484
vn -0.0786 0.9945 -0.0688
vn -0.0746 0.9945 0.0732
vn 0.0786 0.9945 0.0689
vn 0.0746 0.9945 -0.0732
vn -0.0786 0.9945 -0.0689
vn 0.0000 -1.0000 0.0000
vn -0.7256 0.0744 -0.6841
vn -0.7246 0.0697 -0.6856
vn -0.7269 -0.0000 -0.6867
vn 0.6845 0.0697 -0.7257
vn 0.6867 -0.0000 -0.7269
vn 0.7246 0.0697 0.6856
vn 0.7269 0.0000 0.6867
vn -0.6845 0.0697 0.7257
vn -0.6867 0.0000 0.7269
vn -0.3046 0.9118 -0.2752
vn -0.1758 0.9710 -0.1619
vn -0.5495 0.6593 -0.5132
vn -0.4660 0.7736 -0.4295
vn 0.2885 0.9118 -0.2921
vn 0.5195 0.6593 -0.5436
vn 0.3047 0.9118 0.2752
vn 0.5495 0.6593 0.5132
vn -0.2885 0.9118 0.2921
vn -0.5195 0.6593 0.5436
vn -0.3047 0.9118 -0.2752
vn -0.6778 0.3717 -0.6343
vn -0.6900 0.3129 -0.6527
vn 0.6517 0.3129 -0.6909
vn 0.6900 0.3129 0.6527
vn -0.6517 0.3129 0.6909
usemtl Material_#2092
s 1
f 31//1 41//2 39//3 37//4 35//5 33//6
f 11//7 12//7 7//7 8//7 9//7 10//7
f 14//8 17//9 12//10 11//10
f 17//9 20//11 7//12 12//10
f 20//11 23//13 8//14 7//12
f 23//13 26//15 9//16 8//14
f 26//15 29//9 10//10 9//16
f 29//9 14//8 11//10 10//10
f 33//6 34//17 32//18 31//1
f 34//17 16//19 13//20 32//18
f 35//5 36//21 34//17 33//6
f 36//21 19//22 16//19 34//17
f 37//4 38//23 36//21 35//5
f 38//23 22//24 19//22 36//21
f 39//3 40//25 38//23 37//4
f 40//25 25//26 22//24 38//23
f 41//2 42//27 40//25 39//3
f 42//27 28//19 25//26 40//25
f 31//1 32//18 42//27 41//2
f 32//18 13//20 28//19 42//27
f 14//8 15//28 18//29 17//9
f 15//28 13//20 16//19 18//29
f 17//9 18//29 21//30 20//11
f 18//29 16//19 19//22 21//30
f 20//11 21//30 24//31 23//13
f 21//30 19//22 22//24 24//31
f 23//13 24//31 27//32 26//15
f 24//31 22//24 25//26 27//32
f 26//15 27//32 30//29 29//9
f 27//32 25//26 28//19 30//29
f 29//9 30//29 15//28 14//8
f 30//29 28//19 13//20 15//28
