# Blender v3.4.1 OBJ File: 'untitled.blend'
# www.blender.org
mtllib Line015.mtl
o Line015_Mesh.018
v 0.057781 1.021164 0.499525
v 0.087666 1.021164 0.498675
v 0.086234 1.021164 0.448359
v 0.076341 1.021164 0.448641
v 0.072843 1.021164 0.325691
v 0.064332 1.021164 0.325933
v 0.067835 1.021164 0.449048
v 0.056382 1.021164 0.449374
v 0.056886 1.035444 0.449877
v 0.056382 1.033337 0.449374
v 0.056508 1.034566 0.449499
v 0.058257 1.035444 0.498993
v 0.057781 1.033337 0.499525
v 0.057900 1.034566 0.499392
v 0.087161 1.035444 0.498171
v 0.087666 1.033337 0.498675
v 0.087540 1.034566 0.498549
v 0.068340 1.035444 0.449551
v 0.067835 1.033337 0.449048
v 0.067961 1.034566 0.449174
v 0.085759 1.035444 0.448891
v 0.086234 1.033337 0.448359
v 0.086116 1.034566 0.448492
v 0.075866 1.035444 0.449172
v 0.076341 1.033337 0.448641
v 0.076223 1.034566 0.448774
v 0.064837 1.035444 0.326437
v 0.064332 1.033337 0.325933
v 0.064459 1.034566 0.326059
v 0.072368 1.035444 0.326223
v 0.072843 1.033337 0.325691
v 0.072725 1.034566 0.325824
v 0.058400 1.036146 0.451389
v 0.057517 1.035971 0.450507
v 0.059684 1.036146 0.497398
v 0.058851 1.035971 0.498329
v 0.085646 1.036146 0.496659
v 0.086530 1.035971 0.497541
v 0.084333 1.036146 0.450486
v 0.085165 1.035971 0.449555
v 0.074440 1.036146 0.450767
v 0.075272 1.035971 0.449837
v 0.070942 1.036146 0.327818
v 0.071774 1.035971 0.326887
v 0.066352 1.036146 0.327948
v 0.065468 1.035971 0.327067
v 0.069854 1.036146 0.451063
v 0.068971 1.035971 0.450181
vn 0.0786 0.9945 0.0688
vn 0.0746 0.9945 -0.0733
vn 0.0238 0.9994 -0.0256
vn -0.0746 0.9945 0.0733
vn -0.0786 0.9945 -0.0688
vn -0.0252 0.9994 -0.0242
vn 0.0000 -1.0000 -0.0000
vn 0.0000 -1.0000 0.0008
vn -0.7244 0.0697 -0.6858
vn -0.7267 0.0000 -0.6869
vn -0.6869 0.0000 0.7267
vn -0.6847 0.0698 0.7255
vn 0.7269 0.0000 0.6867
vn 0.7246 0.0697 0.6856
vn -0.7256 0.0744 -0.6841
vn -0.7269 0.0000 -0.6867
vn 0.6867 0.0000 -0.7269
vn 0.6845 0.0697 -0.7257
vn 0.6855 0.0744 -0.7242
vn -0.7246 0.0697 -0.6856
vn -0.3046 0.9118 -0.2753
vn -0.2885 0.9119 0.2920
vn -0.5494 0.6592 -0.5134
vn -0.5196 0.6593 0.5434
vn 0.3046 0.9119 0.2751
vn 0.5495 0.6592 0.5132
vn 0.2885 0.9119 -0.2920
vn 0.5195 0.6593 -0.5436
vn 0.1664 0.9710 -0.1716
vn 0.4408 0.7736 -0.4552
vn 0.2885 0.9119 -0.2921
vn -0.3046 0.9119 -0.2751
vn -0.5495 0.6593 -0.5132
vn -0.1759 0.9710 -0.1620
vn -0.4660 0.7736 -0.4294
vn -0.6519 0.3129 0.6907
vn -0.6898 0.3128 -0.6529
vn 0.6900 0.3128 0.6527
vn -0.6779 0.3717 -0.6343
vn 0.6517 0.3129 -0.6909
vn 0.6407 0.3716 -0.6719
vn -0.6900 0.3128 -0.6527
usemtl Material_#2092
s 1
f 37//1 39//2 41//3
f 35//4 37//1 41//3
f 41//3 43//2 45//5
f 41//3 45//5 47//6
f 35//4 41//3 47//6
f 33//5 35//4 47//6
f 2//7 1//7 8//7
f 2//7 8//7 7//7
f 6//7 5//7 4//8
f 7//7 6//7 4//8
f 7//7 4//8 3//7
f 2//7 7//7 3//7
f 10//9 8//10 1//11
f 1//11 13//12 10//9
f 13//12 1//11 2//13
f 2//13 16//14 13//12
f 19//15 7//16 8//10
f 8//10 10//9 19//15
f 16//14 2//13 3//17
f 3//17 22//18 16//14
f 22//18 3//17 4//17
f 4//17 25//19 22//18
f 28//20 6//16 7//16
f 7//16 19//15 28//20
f 25//19 4//17 5//17
f 5//17 31//18 25//19
f 31//18 5//17 6//16
f 6//16 28//20 31//18
f 35//4 33//5 34//21
f 34//21 36//22 35//4
f 36//22 34//21 9//23
f 9//23 12//24 36//22
f 37//1 35//4 36//22
f 36//22 38//25 37//1
f 38//25 36//22 12//24
f 12//24 15//26 38//25
f 39//2 37//1 38//25
f 38//25 40//27 39//2
f 40//27 38//25 15//26
f 15//26 21//28 40//27
f 41//3 39//2 40//27
f 40//27 42//29 41//3
f 42//29 40//27 21//28
f 21//28 24//30 42//29
f 43//2 41//3 42//29
f 42//29 44//31 43//2
f 44//31 42//29 24//30
f 24//30 30//28 44//31
f 45//5 43//2 44//31
f 44//31 46//32 45//5
f 46//32 44//31 30//28
f 30//28 27//33 46//32
f 47//6 45//5 46//32
f 46//32 48//34 47//6
f 48//34 46//32 27//33
f 27//33 18//35 48//34
f 33//5 47//6 48//34
f 48//34 34//21 33//5
f 34//21 48//34 18//35
f 18//35 9//23 34//21
f 10//9 13//12 14//36
f 14//36 11//37 10//9
f 11//37 14//36 12//24
f 12//24 9//23 11//37
f 13//12 16//14 17//38
f 17//38 14//36 13//12
f 14//36 17//38 15//26
f 15//26 12//24 14//36
f 19//15 10//9 11//37
f 11//37 20//39 19//15
f 20//39 11//37 9//23
f 9//23 18//35 20//39
f 16//14 22//18 23//40
f 23//40 17//38 16//14
f 17//38 23//40 21//28
f 21//28 15//26 17//38
f 22//18 25//19 26//41
f 26//41 23//40 22//18
f 23//40 26//41 24//30
f 24//30 21//28 23//40
f 28//20 19//15 20//39
f 20//39 29//42 28//20
f 29//42 20//39 18//35
f 18//35 27//33 29//42
f 25//19 31//18 32//40
f 32//40 26//41 25//19
f 26//41 32//40 30//28
f 30//28 24//30 26//41
f 31//18 28//20 29//42
f 29//42 32//40 31//18
f 32//40 29//42 27//33
f 27//33 30//28 32//40
