# Blender v3.4.1 OBJ File: 'untitled.blend'
# www.blender.org
mtllib Line030.mtl
o Line030_Mesh.066
v -0.198255 1.036146 0.331813
v -0.193281 1.036146 0.506659
v -0.164481 1.036146 0.505840
v -0.165921 1.036146 0.455243
v -0.174106 1.036146 0.455476
v -0.177641 1.036146 0.331227
v -0.198255 1.021164 0.331813
v -0.193281 1.021164 0.506659
v -0.164481 1.021164 0.505840
v -0.165921 1.021164 0.455243
v -0.174106 1.021164 0.455476
v -0.177641 1.021164 0.331227
v -0.174581 1.035444 0.456008
v -0.174106 1.033337 0.455476
v -0.174225 1.034566 0.455609
v -0.178116 1.035444 0.331758
v -0.177641 1.033337 0.331227
v -0.177760 1.034566 0.331360
v -0.197750 1.035444 0.332317
v -0.198255 1.033337 0.331813
v -0.198129 1.034566 0.331939
v -0.192805 1.035444 0.506128
v -0.193281 1.033337 0.506659
v -0.193162 1.034566 0.506526
v -0.164986 1.035444 0.505336
v -0.164481 1.033337 0.505840
v -0.164608 1.034566 0.505714
v -0.166396 1.035444 0.455775
v -0.165921 1.033337 0.455243
v -0.166040 1.034566 0.455376
v -0.176007 1.036146 0.457603
v -0.175176 1.035971 0.456673
v -0.179543 1.036146 0.333353
v -0.178711 1.035971 0.332423
v -0.196236 1.036146 0.333828
v -0.197119 1.035971 0.332947
v -0.191379 1.036146 0.504533
v -0.192211 1.035971 0.505463
v -0.166501 1.036146 0.503825
v -0.165617 1.035971 0.504706
v -0.167822 1.036146 0.457370
v -0.166990 1.035971 0.456440
vn 0.0476 0.9976 -0.0512
vn 0.0746 0.9945 -0.0732
vn -0.0786 0.9945 -0.0688
vn -0.0746 0.9945 0.0732
vn 0.0786 0.9945 0.0689
vn 0.0000 -1.0000 0.0000
vn 0.6855 0.0744 -0.7242
vn 0.6867 0.0000 -0.7269
vn 0.6845 0.0697 -0.7257
vn -0.7269 0.0000 -0.6867
vn -0.7246 0.0697 -0.6856
vn -0.6867 0.0000 0.7269
vn -0.6845 0.0697 0.7257
vn 0.7269 0.0000 0.6867
vn 0.7246 0.0697 0.6856
vn 0.1664 0.9710 -0.1717
vn 0.2885 0.9119 -0.2920
vn 0.4408 0.7736 -0.4552
vn 0.5195 0.6593 -0.5436
vn -0.3046 0.9119 -0.2752
vn -0.5495 0.6593 -0.5132
vn -0.2885 0.9119 0.2920
vn -0.5195 0.6593 0.5436
vn 0.3046 0.9119 0.2752
vn 0.5495 0.6593 0.5132
vn 0.6517 0.3129 -0.6909
vn 0.6407 0.3716 -0.6719
vn -0.6900 0.3129 -0.6527
vn -0.6517 0.3129 0.6909
vn 0.6900 0.3129 0.6527
usemtl Material_#2092
s 1
f 31//1 33//2 35//3 37//4 39//5 41//2
f 11//6 10//6 9//6 8//6 7//6 12//6
f 14//7 11//8 12//8 17//9
f 17//9 12//8 7//10 20//11
f 20//11 7//10 8//12 23//13
f 23//13 8//12 9//14 26//15
f 26//15 9//14 10//8 29//9
f 29//9 10//8 11//8 14//7
f 33//2 31//1 32//16 34//17
f 34//17 32//16 13//18 16//19
f 35//3 33//2 34//17 36//20
f 36//20 34//17 16//19 19//21
f 37//4 35//3 36//20 38//22
f 38//22 36//20 19//21 22//23
f 39//5 37//4 38//22 40//24
f 40//24 38//22 22//23 25//25
f 41//2 39//5 40//24 42//17
f 42//17 40//24 25//25 28//19
f 31//1 41//2 42//17 32//16
f 32//16 42//17 28//19 13//18
f 14//7 17//9 18//26 15//27
f 15//27 18//26 16//19 13//18
f 17//9 20//11 21//28 18//26
f 18//26 21//28 19//21 16//19
f 20//11 23//13 24//29 21//28
f 21//28 24//29 22//23 19//21
f 23//13 26//15 27//30 24//29
f 24//29 27//30 25//25 22//23
f 26//15 29//9 30//26 27//30
f 27//30 30//26 28//19 25//25
f 29//9 14//7 15//27 30//26
f 30//26 15//27 13//18 28//19
