# Blender v3.4.1 OBJ File: 'untitled.blend'
# www.blender.org
mtllib Line019.mtl
o Line019_Mesh.022
v 0.308950 1.021164 0.492379
v 0.338835 1.021164 0.491528
v 0.337403 1.021164 0.441213
v 0.327510 1.021164 0.441494
v 0.324012 1.021164 0.318545
v 0.315501 1.021164 0.318787
v 0.319004 1.021164 0.441902
v 0.307551 1.021164 0.442227
v 0.308055 1.035444 0.442731
v 0.307551 1.033337 0.442227
v 0.307677 1.034566 0.442353
v 0.309426 1.035444 0.491847
v 0.308950 1.033337 0.492379
v 0.309069 1.034566 0.492246
v 0.338330 1.035444 0.491025
v 0.338835 1.033337 0.491528
v 0.338709 1.034566 0.491402
v 0.319509 1.035444 0.442405
v 0.319004 1.033337 0.441902
v 0.319130 1.034566 0.442028
v 0.336928 1.035444 0.441745
v 0.337403 1.033337 0.441213
v 0.337284 1.034566 0.441346
v 0.327035 1.035444 0.442026
v 0.327510 1.033337 0.441494
v 0.327392 1.034566 0.441627
v 0.316006 1.035444 0.319291
v 0.315501 1.033337 0.318787
v 0.315627 1.034566 0.318913
v 0.323537 1.035444 0.319077
v 0.324012 1.033337 0.318545
v 0.323893 1.034566 0.318678
v 0.309569 1.036146 0.444243
v 0.308686 1.035971 0.443361
v 0.310853 1.036146 0.490252
v 0.310020 1.035971 0.491182
v 0.336815 1.036146 0.489513
v 0.337699 1.035971 0.490395
v 0.335502 1.036146 0.443340
v 0.336334 1.035971 0.442409
v 0.325609 1.036146 0.443621
v 0.326441 1.035971 0.442691
v 0.322111 1.036146 0.320672
v 0.322943 1.035971 0.319741
v 0.317521 1.036146 0.320802
v 0.316637 1.035971 0.319921
v 0.321023 1.036146 0.443917
v 0.320140 1.035971 0.443035
vn 0.0786 0.9945 0.0688
vn 0.0746 0.9945 -0.0733
vn 0.0238 0.9994 -0.0256
vn -0.0746 0.9945 0.0732
vn 0.0746 0.9945 -0.0732
vn -0.0786 0.9945 -0.0688
vn -0.0252 0.9994 -0.0242
vn 0.0000 -1.0000 -0.0000
vn 0.0000 -1.0000 0.0008
vn -0.7244 0.0697 -0.6858
vn -0.7267 0.0000 -0.6869
vn -0.6869 0.0000 0.7267
vn -0.6847 0.0698 0.7255
vn 0.7269 0.0000 0.6867
vn 0.7246 0.0697 0.6856
vn -0.7256 0.0744 -0.6841
vn -0.7269 0.0000 -0.6867
vn 0.6867 0.0000 -0.7269
vn 0.6845 0.0697 -0.7257
vn 0.6855 0.0744 -0.7242
vn -0.7246 0.0697 -0.6856
vn -0.3046 0.9118 -0.2753
vn -0.2885 0.9119 0.2919
vn -0.5494 0.6592 -0.5134
vn -0.5196 0.6593 0.5434
vn 0.3046 0.9119 0.2752
vn 0.5495 0.6592 0.5132
vn 0.2885 0.9119 -0.2920
vn 0.5195 0.6593 -0.5436
vn 0.1664 0.9710 -0.1716
vn 0.4408 0.7736 -0.4552
vn -0.3046 0.9119 -0.2751
vn -0.5495 0.6593 -0.5132
vn -0.1759 0.9710 -0.1620
vn -0.4660 0.7736 -0.4294
vn -0.6519 0.3129 0.6907
vn -0.6898 0.3128 -0.6529
vn 0.6900 0.3129 0.6527
vn -0.6779 0.3716 -0.6343
vn 0.6517 0.3129 -0.6909
vn 0.6407 0.3716 -0.6719
vn -0.6900 0.3129 -0.6527
usemtl Material_#2092
s 1
f 37//1 39//2 41//3
f 35//4 37//1 41//3
f 41//3 43//5 45//6
f 41//3 45//6 47//7
f 35//4 41//3 47//7
f 33//6 35//4 47//7
f 2//8 1//8 8//8
f 2//8 8//8 7//8
f 6//8 5//8 4//9
f 7//8 6//8 4//9
f 7//8 4//9 3//8
f 2//8 7//8 3//8
f 10//10 8//11 1//12
f 1//12 13//13 10//10
f 13//13 1//12 2//14
f 2//14 16//15 13//13
f 19//16 7//17 8//11
f 8//11 10//10 19//16
f 16//15 2//14 3//18
f 3//18 22//19 16//15
f 22//19 3//18 4//18
f 4//18 25//20 22//19
f 28//21 6//17 7//17
f 7//17 19//16 28//21
f 25//20 4//18 5//18
f 5//18 31//19 25//20
f 31//19 5//18 6//17
f 6//17 28//21 31//19
f 35//4 33//6 34//22
f 34//22 36//23 35//4
f 36//23 34//22 9//24
f 9//24 12//25 36//23
f 37//1 35//4 36//23
f 36//23 38//26 37//1
f 38//26 36//23 12//25
f 12//25 15//27 38//26
f 39//2 37//1 38//26
f 38//26 40//28 39//2
f 40//28 38//26 15//27
f 15//27 21//29 40//28
f 41//3 39//2 40//28
f 40//28 42//30 41//3
f 42//30 40//28 21//29
f 21//29 24//31 42//30
f 43//5 41//3 42//30
f 42//30 44//28 43//5
f 44//28 42//30 24//31
f 24//31 30//29 44//28
f 45//6 43//5 44//28
f 44//28 46//32 45//6
f 46//32 44//28 30//29
f 30//29 27//33 46//32
f 47//7 45//6 46//32
f 46//32 48//34 47//7
f 48//34 46//32 27//33
f 27//33 18//35 48//34
f 33//6 47//7 48//34
f 48//34 34//22 33//6
f 34//22 48//34 18//35
f 18//35 9//24 34//22
f 10//10 13//13 14//36
f 14//36 11//37 10//10
f 11//37 14//36 12//25
f 12//25 9//24 11//37
f 13//13 16//15 17//38
f 17//38 14//36 13//13
f 14//36 17//38 15//27
f 15//27 12//25 14//36
f 19//16 10//10 11//37
f 11//37 20//39 19//16
f 20//39 11//37 9//24
f 9//24 18//35 20//39
f 16//15 22//19 23//40
f 23//40 17//38 16//15
f 17//38 23//40 21//29
f 21//29 15//27 17//38
f 22//19 25//20 26//41
f 26//41 23//40 22//19
f 23//40 26//41 24//31
f 24//31 21//29 23//40
f 28//21 19//16 20//39
f 20//39 29//42 28//21
f 29//42 20//39 18//35
f 18//35 27//33 29//42
f 25//20 31//19 32//40
f 32//40 26//41 25//20
f 26//41 32//40 30//29
f 30//29 24//31 26//41
f 31//19 28//21 29//42
f 29//42 32//40 31//19
f 32//40 29//42 27//33
f 27//33 30//29 32//40
