# Blender v3.4.1 OBJ File: 'untitled.blend'
# www.blender.org
mtllib Line043.mtl
o Line043_Mesh.079
v -0.072996 1.036146 0.328249
v -0.068021 1.036146 0.503096
v -0.096820 1.036146 0.503915
v -0.098260 1.036146 0.453318
v -0.090075 1.036146 0.453086
v -0.093610 1.036146 0.328836
v -0.072996 1.021163 0.328249
v -0.068021 1.021164 0.503096
v -0.096820 1.021164 0.503915
v -0.098260 1.021164 0.453318
v -0.090075 1.021164 0.453086
v -0.093610 1.021163 0.328836
v -0.089570 1.035444 0.453589
v -0.090075 1.033337 0.453086
v -0.089949 1.034566 0.453211
v -0.093105 1.035444 0.329340
v -0.093610 1.033337 0.328836
v -0.093484 1.034566 0.328962
v -0.073471 1.035444 0.328781
v -0.072996 1.033337 0.328249
v -0.073114 1.034566 0.328382
v -0.068526 1.035444 0.502592
v -0.068021 1.033337 0.503096
v -0.068147 1.034566 0.502970
v -0.096345 1.035444 0.503383
v -0.096820 1.033337 0.503915
v -0.096701 1.034566 0.503782
v -0.097755 1.035444 0.453822
v -0.098260 1.033337 0.453318
v -0.098134 1.034566 0.453444
v -0.088055 1.036146 0.455101
v -0.088939 1.035971 0.454219
v -0.091590 1.036146 0.330851
v -0.092474 1.035971 0.329969
v -0.074897 1.036146 0.330376
v -0.074065 1.035971 0.329446
v -0.070040 1.036146 0.501080
v -0.069157 1.035971 0.501962
v -0.094919 1.036146 0.501788
v -0.095751 1.035971 0.502719
v -0.096240 1.036146 0.455334
v -0.097124 1.035971 0.454452
vn -0.0504 0.9976 -0.0484
vn -0.0786 0.9945 -0.0688
vn -0.0746 0.9945 0.0732
vn 0.0786 0.9945 0.0689
vn 0.0746 0.9945 -0.0732
vn 0.0000 -1.0000 0.0000
vn -0.7256 0.0744 -0.6841
vn -0.7246 0.0697 -0.6856
vn -0.7269 0.0000 -0.6867
vn 0.6845 0.0697 -0.7257
vn 0.6867 0.0000 -0.7269
vn 0.7246 0.0697 0.6856
vn 0.7269 0.0000 0.6867
vn -0.6845 0.0697 0.7257
vn -0.6867 0.0000 0.7269
vn -0.3046 0.9118 -0.2752
vn -0.1758 0.9710 -0.1619
vn -0.5495 0.6593 -0.5132
vn -0.4660 0.7736 -0.4295
vn 0.2885 0.9118 -0.2921
vn 0.5195 0.6593 -0.5436
vn 0.3047 0.9118 0.2752
vn 0.5495 0.6593 0.5132
vn -0.2885 0.9118 0.2920
vn -0.5195 0.6593 0.5436
vn -0.3047 0.9118 -0.2752
vn -0.6778 0.3717 -0.6343
vn -0.6900 0.3129 -0.6527
vn 0.6517 0.3129 -0.6909
vn 0.6900 0.3129 0.6527
vn -0.6517 0.3129 0.6909
usemtl Material_#2092
s 1
f 31//1 41//2 39//3 37//4 35//5 33//2
f 11//6 12//6 7//6 8//6 9//6 10//6
f 14//7 17//8 12//9 11//9
f 17//8 20//10 7//11 12//9
f 20//10 23//12 8//13 7//11
f 23//12 26//14 9//15 8//13
f 26//14 29//8 10//9 9//15
f 29//8 14//7 11//9 10//9
f 33//2 34//16 32//17 31//1
f 34//16 16//18 13//19 32//17
f 35//5 36//20 34//16 33//2
f 36//20 19//21 16//18 34//16
f 37//4 38//22 36//20 35//5
f 38//22 22//23 19//21 36//20
f 39//3 40//24 38//22 37//4
f 40//24 25//25 22//23 38//22
f 41//2 42//26 40//24 39//3
f 42//26 28//18 25//25 40//24
f 31//1 32//17 42//26 41//2
f 32//17 13//19 28//18 42//26
f 14//7 15//27 18//28 17//8
f 15//27 13//19 16//18 18//28
f 17//8 18//28 21//29 20//10
f 18//28 16//18 19//21 21//29
f 20//10 21//29 24//30 23//12
f 21//29 19//21 22//23 24//30
f 23//12 24//30 27//31 26//14
f 24//30 22//23 25//25 27//31
f 26//14 27//31 30//28 29//8
f 27//31 25//25 28//18 30//28
f 29//8 30//28 15//27 14//7
f 30//28 28//18 13//19 15//27
