# Blender v3.4.1 OBJ File: 'untitled.blend'
# www.blender.org
mtllib Rectangle023.mtl
o Rectangle023_Mesh.048
v 0.203304 1.050076 0.442914
v 0.204536 1.050427 0.443138
v 0.203861 1.050339 0.443092
v 0.203066 1.048320 0.443180
v 0.203125 1.049285 0.443113
v 0.203022 1.050427 0.441627
v 0.203103 1.050339 0.442337
v 0.223340 1.050076 0.442344
v 0.222122 1.050427 0.442638
v 0.222794 1.050339 0.442554
v 0.223548 1.050427 0.441043
v 0.223507 1.050339 0.441756
v 0.223592 1.048320 0.442596
v 0.223529 1.049285 0.442533
v 0.219881 1.050076 0.320761
v 0.220162 1.050427 0.322048
v 0.220081 1.050339 0.321338
v 0.218648 1.050427 0.320537
v 0.219324 1.050339 0.320582
v 0.220118 1.048320 0.320495
v 0.220059 1.049285 0.320561
v 0.199844 1.050076 0.321331
v 0.199636 1.050427 0.322632
v 0.199677 1.050339 0.321918
v 0.199592 1.048320 0.321079
v 0.199655 1.049285 0.321142
v 0.201062 1.050427 0.321037
v 0.200390 1.050339 0.321121
v 0.203066 1.021164 0.443180
v 0.204551 1.021164 0.443656
v 0.203690 1.021164 0.443551
v 0.202532 1.021164 0.441641
v 0.202680 1.021164 0.442543
v 0.223592 1.021164 0.442596
v 0.224038 1.021164 0.441029
v 0.223941 1.021164 0.441938
v 0.222137 1.021164 0.443155
v 0.222991 1.021164 0.443002
v 0.220118 1.021164 0.320495
v 0.218633 1.021164 0.320019
v 0.219495 1.021164 0.320124
v 0.220653 1.021164 0.322034
v 0.220504 1.021164 0.321131
v 0.199592 1.021164 0.321079
v 0.199146 1.021164 0.322646
v 0.199243 1.021164 0.321736
v 0.201048 1.021164 0.320519
v 0.200194 1.021164 0.320673
v 0.204492 1.051129 0.441585
v 0.204518 1.050954 0.442491
v 0.203634 1.050954 0.441609
v 0.203720 1.050778 0.442449
v 0.222078 1.051129 0.441085
v 0.222935 1.050954 0.441060
v 0.222103 1.050954 0.441991
v 0.222898 1.050778 0.441903
v 0.218692 1.051129 0.322090
v 0.218666 1.050954 0.321184
v 0.219550 1.050954 0.322065
v 0.219465 1.050778 0.321226
v 0.201107 1.051129 0.322590
v 0.200249 1.050954 0.322614
v 0.201081 1.050954 0.321684
v 0.200286 1.050778 0.321771
v 0.222137 1.048320 0.443155
v 0.222133 1.049549 0.443026
v 0.222991 1.048320 0.443002
v 0.222926 1.049461 0.442874
v 0.204551 1.048320 0.443656
v 0.203690 1.048320 0.443551
v 0.204547 1.049549 0.443526
v 0.203747 1.049461 0.443420
v 0.220653 1.048320 0.322034
v 0.220530 1.049549 0.322037
v 0.220504 1.048320 0.321131
v 0.220384 1.049461 0.321200
v 0.224038 1.048320 0.441029
v 0.223941 1.048320 0.441938
v 0.223916 1.049549 0.441032
v 0.223817 1.049461 0.441877
v 0.202532 1.048320 0.441641
v 0.202654 1.049549 0.441637
v 0.202680 1.048320 0.442543
v 0.202801 1.049461 0.442475
v 0.199146 1.048320 0.322646
v 0.199243 1.048320 0.321736
v 0.199269 1.049549 0.322642
v 0.199367 1.049461 0.321798
v 0.201048 1.048320 0.320519
v 0.201051 1.049549 0.320649
v 0.200194 1.048320 0.320673
v 0.200259 1.049461 0.320801
v 0.218633 1.048320 0.320019
v 0.219495 1.048320 0.320124
v 0.218637 1.049549 0.320148
v 0.219437 1.049461 0.320255
vn 0.1058 0.9898 0.0950
vn 0.1002 0.9898 -0.1008
vn -0.1058 0.9898 -0.0950
vn -0.1002 0.9898 0.1008
vn 0.0000 -1.0000 0.0000
vn 0.0000 -1.0000 0.0002
vn 0.0000 -1.0000 0.0005
vn 0.0000 -1.0000 0.0004
vn 0.0000 -1.0000 -0.0002
vn 0.0000 -1.0000 -0.0005
vn -0.0483 0.0546 0.9973
vn -0.0465 0.0000 0.9989
vn 0.1032 0.0000 0.9947
vn 0.1050 0.0546 0.9930
vn 0.9978 0.0517 0.0406
vn 0.9992 0.0000 0.0388
vn 0.9954 0.0000 -0.0955
vn 0.9939 0.0517 -0.0973
vn -0.9978 0.0517 -0.0406
vn -0.9992 0.0000 -0.0388
vn -0.9954 0.0000 0.0955
vn -0.9939 0.0517 0.0973
vn 0.0483 0.0546 -0.9973
vn 0.0465 0.0000 -0.9989
vn -0.1032 0.0000 -0.9947
vn -0.1050 0.0546 -0.9930
vn -0.4278 0.8969 0.1120
vn -0.3922 0.8310 0.3945
vn -0.0946 0.9041 0.4168
vn -0.2986 0.5801 0.7579
vn -0.0537 0.6076 0.7924
vn -0.8025 0.5894 0.0928
vn -0.7590 0.5677 0.3189
vn -0.6263 0.4577 0.6311
vn 0.1182 0.9041 0.4107
vn 0.4140 0.8310 0.3715
vn 0.4334 0.8969 0.0876
vn 0.7759 0.5677 0.2753
vn 0.8065 0.5894 0.0470
vn 0.0987 0.6076 0.7881
vn 0.3412 0.5801 0.7396
vn 0.6612 0.4577 0.5944
vn 0.4278 0.8969 -0.1120
vn 0.3922 0.8310 -0.3945
vn 0.0946 0.9041 -0.4168
vn 0.2986 0.5801 -0.7579
vn 0.0537 0.6077 -0.7924
vn 0.8025 0.5894 -0.0928
vn 0.7590 0.5677 -0.3189
vn 0.6263 0.4577 -0.6311
vn -0.1182 0.9041 -0.4107
vn -0.4140 0.8310 -0.3715
vn -0.4334 0.8969 -0.0876
vn -0.7759 0.5677 -0.2753
vn -0.8065 0.5894 -0.0470
vn -0.0987 0.6076 -0.7881
vn -0.3412 0.5801 -0.7396
vn -0.6612 0.4577 -0.5944
vn 0.3721 0.0565 0.9265
vn 0.3651 0.2389 0.8998
vn 0.1127 0.2543 0.9605
vn 0.7423 0.0456 0.6685
vn 0.7276 0.1990 0.6565
vn -0.0579 0.2543 0.9654
vn -0.3133 0.2389 0.9191
vn -0.3188 0.0565 0.9461
vn -0.6891 0.1990 0.6968
vn -0.7031 0.0456 0.7097
vn 0.9378 0.0542 -0.3430
vn 0.9130 0.2303 -0.3368
vn 0.9645 0.2425 -0.1042
vn 0.7031 0.0456 -0.7096
vn 0.6891 0.1990 -0.6968
vn 0.9689 0.2425 0.0492
vn 0.9307 0.2303 0.2843
vn 0.9558 0.0542 0.2891
vn -0.9378 0.0542 0.3430
vn -0.9130 0.2303 0.3368
vn -0.9645 0.2425 0.1042
vn -0.9689 0.2425 -0.0492
vn -0.9306 0.2303 -0.2843
vn -0.9558 0.0542 -0.2891
vn -0.7277 0.1990 -0.6564
vn -0.7423 0.0456 -0.6685
vn -0.3721 0.0565 -0.9265
vn -0.3651 0.2389 -0.8998
vn -0.1127 0.2543 -0.9605
vn 0.0579 0.2543 -0.9654
vn 0.3133 0.2389 -0.9191
vn 0.3188 0.0565 -0.9461
vn -0.3230 0.0000 0.9464
vn -0.7041 0.0000 0.7101
vn 0.3763 0.0000 0.9265
vn 0.7433 0.0000 0.6690
vn 0.9562 0.0000 0.2927
vn 0.9380 0.0000 -0.3466
vn 0.7041 0.0000 -0.7101
vn -0.9562 0.0000 -0.2927
vn -0.7433 0.0000 -0.6689
vn -0.9380 0.0000 0.3466
vn 0.3230 0.0000 -0.9464
vn -0.3763 0.0000 -0.9265
usemtl Material_#2093
s 1
f 53//1 57//2 61//3
f 61//3 49//4 53//1
f 41//5 39//6 43//5
f 43//5 42//5 35//5
f 35//5 36//5 34//5
f 43//5 35//5 34//5
f 34//5 38//7 37//5
f 37//5 30//8 31//5
f 34//5 37//5 31//5
f 31//5 29//9 33//5
f 33//5 32//5 45//5
f 31//5 33//5 45//5
f 45//5 46//5 44//5
f 44//5 48//10 47//5
f 45//5 44//5 47//5
f 31//5 45//5 47//5
f 34//5 31//5 47//5
f 43//5 34//5 47//5
f 41//5 43//5 47//5
f 40//5 41//5 47//5
f 69//11 30//12 37//13
f 37//13 65//14 69//11
f 77//15 35//16 42//17
f 42//17 73//18 77//15
f 85//19 45//20 32//21
f 32//21 81//22 85//19
f 93//23 40//24 47//25
f 47//25 89//26 93//23
f 49//4 51//27 52//28
f 52//28 50//29 49//4
f 50//29 52//28 3//30
f 3//30 2//31 50//29
f 51//27 6//32 7//33
f 7//33 52//28 51//27
f 52//28 7//33 1//34
f 1//34 3//30 52//28
f 53//1 55//35 56//36
f 56//36 54//37 53//1
f 54//37 56//36 12//38
f 12//38 11//39 54//37
f 55//35 9//40 10//41
f 10//41 56//36 55//35
f 56//36 10//41 8//42
f 8//42 12//38 56//36
f 57//2 59//43 60//44
f 60//44 58//45 57//2
f 58//45 60//44 19//46
f 19//46 18//47 58//45
f 59//43 16//48 17//49
f 17//49 60//44 59//43
f 60//44 17//49 15//50
f 15//50 19//46 60//44
f 61//3 63//51 64//52
f 64//52 62//53 61//3
f 62//53 64//52 24//54
f 24//54 23//55 62//53
f 63//51 27//56 28//57
f 28//57 64//52 63//51
f 64//52 28//57 22//58
f 22//58 24//54 64//52
f 65//14 67//59 68//60
f 68//60 66//61 65//14
f 66//61 68//60 10//41
f 10//41 9//40 66//61
f 67//59 13//62 14//63
f 14//63 68//60 67//59
f 68//60 14//63 8//42
f 8//42 10//41 68//60
f 69//11 71//64 72//65
f 72//65 70//66 69//11
f 70//66 72//65 5//67
f 5//67 4//68 70//66
f 71//64 2//31 3//30
f 3//30 72//65 71//64
f 72//65 3//30 1//34
f 1//34 5//67 72//65
f 73//18 75//69 76//70
f 76//70 74//71 73//18
f 74//71 76//70 17//49
f 17//49 16//48 74//71
f 75//69 20//72 21//73
f 21//73 76//70 75//69
f 76//70 21//73 15//50
f 15//50 17//49 76//70
f 77//15 79//74 80//75
f 80//75 78//76 77//15
f 78//76 80//75 14//63
f 14//63 13//62 78//76
f 79//74 11//39 12//38
f 12//38 80//75 79//74
f 80//75 12//38 8//42
f 8//42 14//63 80//75
f 81//22 83//77 84//78
f 84//78 82//79 81//22
f 82//79 84//78 7//33
f 7//33 6//32 82//79
f 83//77 4//68 5//67
f 5//67 84//78 83//77
f 84//78 5//67 1//34
f 1//34 7//33 84//78
f 85//19 87//80 88//81
f 88//81 86//82 85//19
f 86//82 88//81 26//83
f 26//83 25//84 86//82
f 87//80 23//55 24//54
f 24//54 88//81 87//80
f 88//81 24//54 22//58
f 22//58 26//83 88//81
f 89//26 91//85 92//86
f 92//86 90//87 89//26
f 90//87 92//86 28//57
f 28//57 27//56 90//87
f 91//85 25//84 26//83
f 26//83 92//86 91//85
f 92//86 26//83 22//58
f 22//58 28//57 92//86
f 93//23 95//88 96//89
f 96//89 94//90 93//23
f 94//90 96//89 21//73
f 21//73 20//72 94//90
f 95//88 18//47 19//46
f 19//46 96//89 95//88
f 96//89 19//46 15//50
f 15//50 21//73 96//89
f 53//1 49//4 50//29
f 50//29 55//35 53//1
f 55//35 50//29 2//31
f 2//31 9//40 55//35
f 57//2 53//1 54//37
f 54//37 59//43 57//2
f 59//43 54//37 11//39
f 11//39 16//48 59//43
f 61//3 57//2 58//45
f 58//45 63//51 61//3
f 63//51 58//45 18//47
f 18//47 27//56 63//51
f 49//4 61//3 62//53
f 62//53 51//27 49//4
f 51//27 62//53 23//55
f 23//55 6//32 51//27
f 69//11 65//14 66//61
f 66//61 71//64 69//11
f 71//64 66//61 9//40
f 9//40 2//31 71//64
f 30//12 69//11 70//66
f 70//66 31//91 30//12
f 31//91 70//66 4//68
f 4//68 29//92 31//91
f 65//14 37//13 38//93
f 38//93 67//59 65//14
f 67//59 38//93 34//94
f 34//94 13//62 67//59
f 77//15 73//18 74//71
f 74//71 79//74 77//15
f 79//74 74//71 16//48
f 16//48 11//39 79//74
f 35//16 77//15 78//76
f 78//76 36//95 35//16
f 36//95 78//76 13//62
f 13//62 34//94 36//95
f 73//18 42//17 43//96
f 43//96 75//69 73//18
f 75//69 43//96 39//97
f 39//97 20//72 75//69
f 85//19 81//22 82//79
f 82//79 87//80 85//19
f 87//80 82//79 6//32
f 6//32 23//55 87//80
f 45//20 85//19 86//82
f 86//82 46//98 45//20
f 46//98 86//82 25//84
f 25//84 44//99 46//98
f 81//22 32//21 33//100
f 33//100 83//77 81//22
f 83//77 33//100 29//92
f 29//92 4//68 83//77
f 93//23 89//26 90//87
f 90//87 95//88 93//23
f 95//88 90//87 27//56
f 27//56 18//47 95//88
f 40//24 93//23 94//90
f 94//90 41//101 40//24
f 41//101 94//90 20//72
f 20//72 39//97 41//101
f 89//26 47//25 48//102
f 48//102 91//85 89//26
f 91//85 48//102 44//99
f 44//99 25//84 91//85
