# Blender v3.4.1 OBJ File: 'untitled.blend'
# www.blender.org
mtllib Rectangle026.mtl
o Rectangle026_Mesh.051
v 0.327838 1.050076 0.439371
v 0.329071 1.050427 0.439595
v 0.328395 1.050339 0.439549
v 0.327600 1.048320 0.439637
v 0.327660 1.049285 0.439570
v 0.327556 1.050427 0.438084
v 0.327638 1.050339 0.438794
v 0.347874 1.050076 0.438801
v 0.346656 1.050427 0.439095
v 0.347328 1.050339 0.439011
v 0.348082 1.050427 0.437500
v 0.348041 1.050339 0.438213
v 0.348127 1.048320 0.439053
v 0.348063 1.049285 0.438990
v 0.344415 1.050076 0.317217
v 0.344697 1.050427 0.318505
v 0.344615 1.050339 0.317795
v 0.343182 1.050427 0.316993
v 0.343858 1.050339 0.317039
v 0.344653 1.048320 0.316952
v 0.344593 1.049285 0.317018
v 0.324379 1.050076 0.317787
v 0.324171 1.050427 0.319089
v 0.324212 1.050339 0.318375
v 0.324126 1.048320 0.317536
v 0.324190 1.049285 0.317599
v 0.325597 1.050427 0.317494
v 0.324925 1.050339 0.317578
v 0.327600 1.021164 0.439637
v 0.329085 1.021164 0.440113
v 0.328224 1.021164 0.440008
v 0.327066 1.021164 0.438097
v 0.327214 1.021164 0.439000
v 0.348127 1.021164 0.439053
v 0.348573 1.021164 0.437486
v 0.348476 1.021164 0.438395
v 0.346671 1.021164 0.439612
v 0.347525 1.021164 0.439458
v 0.344653 1.021164 0.316952
v 0.343168 1.021164 0.316476
v 0.344029 1.021164 0.316581
v 0.345187 1.021164 0.318491
v 0.345039 1.021164 0.317588
v 0.324126 1.021164 0.317536
v 0.323680 1.021164 0.319103
v 0.323777 1.021164 0.318193
v 0.325582 1.021164 0.316976
v 0.324728 1.021164 0.317130
v 0.329027 1.051129 0.438042
v 0.329052 1.050954 0.438948
v 0.328169 1.050954 0.438066
v 0.328254 1.050778 0.438906
v 0.346612 1.051129 0.437541
v 0.347470 1.050954 0.437517
v 0.346638 1.050954 0.438447
v 0.347432 1.050778 0.438360
v 0.343226 1.051129 0.318547
v 0.343201 1.050954 0.317641
v 0.344084 1.050954 0.318522
v 0.343999 1.050778 0.317683
v 0.325641 1.051129 0.319047
v 0.324783 1.050954 0.319071
v 0.325615 1.050954 0.318141
v 0.324821 1.050778 0.318228
v 0.346671 1.048320 0.439612
v 0.346667 1.049549 0.439483
v 0.347525 1.048320 0.439458
v 0.347460 1.049461 0.439331
v 0.329085 1.048320 0.440113
v 0.328224 1.048320 0.440008
v 0.329082 1.049549 0.439983
v 0.328282 1.049461 0.439876
v 0.345187 1.048320 0.318491
v 0.345064 1.049549 0.318494
v 0.345039 1.048320 0.317588
v 0.344918 1.049461 0.317656
v 0.348573 1.048320 0.437486
v 0.348476 1.048320 0.438395
v 0.348450 1.049549 0.437489
v 0.348351 1.049461 0.438334
v 0.327066 1.048320 0.438097
v 0.327189 1.049549 0.438094
v 0.327214 1.048320 0.439000
v 0.327335 1.049461 0.438932
v 0.323680 1.048320 0.319103
v 0.323777 1.048320 0.318193
v 0.323803 1.049549 0.319099
v 0.323902 1.049461 0.318254
v 0.325582 1.048320 0.316976
v 0.325586 1.049549 0.317105
v 0.324728 1.048320 0.317130
v 0.324793 1.049461 0.317257
v 0.343168 1.048320 0.316476
v 0.344029 1.048320 0.316581
v 0.343171 1.049549 0.316605
v 0.343971 1.049461 0.316712
vn 0.1058 0.9898 0.0950
vn 0.1002 0.9898 -0.1008
vn -0.1058 0.9898 -0.0950
vn -0.1002 0.9898 0.1008
vn 0.0000 -1.0000 -0.0002
vn 0.0000 -1.0000 -0.0001
vn 0.0000 -1.0000 0.0000
vn 0.0000 -1.0000 0.0001
vn 0.0000 -1.0000 0.0002
vn -0.0483 0.0546 0.9973
vn -0.0465 0.0000 0.9989
vn 0.1032 0.0000 0.9947
vn 0.1050 0.0546 0.9930
vn 0.9978 0.0517 0.0406
vn 0.9992 0.0000 0.0388
vn 0.9954 0.0000 -0.0955
vn 0.9939 0.0517 -0.0973
vn -0.9978 0.0517 -0.0406
vn -0.9992 0.0000 -0.0388
vn -0.9954 0.0000 0.0955
vn -0.9939 0.0517 0.0973
vn 0.0483 0.0546 -0.9973
vn 0.0465 0.0000 -0.9989
vn -0.1032 0.0000 -0.9947
vn -0.1050 0.0546 -0.9930
vn -0.4278 0.8969 0.1120
vn -0.3922 0.8310 0.3945
vn -0.0946 0.9041 0.4168
vn -0.2986 0.5801 0.7579
vn -0.0537 0.6077 0.7924
vn -0.8025 0.5894 0.0928
vn -0.7590 0.5677 0.3189
vn -0.6263 0.4577 0.6311
vn 0.1182 0.9041 0.4107
vn 0.4140 0.8310 0.3715
vn 0.4334 0.8969 0.0876
vn 0.7759 0.5677 0.2753
vn 0.8065 0.5894 0.0470
vn 0.0987 0.6076 0.7881
vn 0.3412 0.5801 0.7396
vn 0.6612 0.4576 0.5945
vn 0.4278 0.8969 -0.1120
vn 0.3922 0.8310 -0.3945
vn 0.0946 0.9041 -0.4168
vn 0.2986 0.5801 -0.7579
vn 0.0537 0.6077 -0.7924
vn 0.8025 0.5894 -0.0928
vn 0.7590 0.5677 -0.3189
vn 0.6263 0.4577 -0.6311
vn -0.1182 0.9041 -0.4107
vn -0.4140 0.8310 -0.3715
vn -0.4335 0.8969 -0.0876
vn -0.7759 0.5677 -0.2753
vn -0.8065 0.5894 -0.0470
vn -0.0987 0.6076 -0.7881
vn -0.3412 0.5801 -0.7396
vn -0.6612 0.4576 -0.5945
vn 0.3721 0.0565 0.9265
vn 0.3651 0.2389 0.8998
vn 0.1127 0.2543 0.9605
vn 0.7423 0.0456 0.6685
vn 0.7276 0.1990 0.6565
vn -0.0579 0.2543 0.9654
vn -0.3133 0.2389 0.9191
vn -0.3188 0.0565 0.9461
vn -0.6891 0.1990 0.6968
vn -0.7031 0.0456 0.7097
vn 0.9378 0.0542 -0.3430
vn 0.9130 0.2303 -0.3368
vn 0.9645 0.2425 -0.1042
vn 0.7031 0.0456 -0.7097
vn 0.6891 0.1990 -0.6968
vn 0.9689 0.2425 0.0492
vn 0.9306 0.2303 0.2843
vn 0.9558 0.0542 0.2891
vn -0.9378 0.0542 0.3430
vn -0.9130 0.2303 0.3368
vn -0.9645 0.2425 0.1042
vn -0.9689 0.2425 -0.0492
vn -0.9306 0.2303 -0.2843
vn -0.9558 0.0542 -0.2891
vn -0.7276 0.1990 -0.6565
vn -0.7423 0.0456 -0.6685
vn -0.3721 0.0565 -0.9265
vn -0.3651 0.2389 -0.8998
vn -0.1127 0.2543 -0.9605
vn 0.0579 0.2543 -0.9654
vn 0.3133 0.2389 -0.9191
vn 0.3188 0.0565 -0.9461
vn -0.3231 0.0000 0.9464
vn -0.7041 0.0000 0.7101
vn 0.3763 0.0000 0.9265
vn 0.7433 0.0000 0.6689
vn 0.9562 0.0000 0.2927
vn 0.9380 0.0000 -0.3466
vn 0.7041 0.0000 -0.7101
vn -0.9562 0.0000 -0.2927
vn -0.7433 0.0000 -0.6689
vn -0.9380 0.0000 0.3466
vn 0.3230 0.0000 -0.9464
vn -0.3763 0.0000 -0.9265
usemtl Material_#2093
s 1
f 53//1 57//2 61//3
f 61//3 49//4 53//1
f 41//5 39//5 43//6
f 43//6 42//7 35//7
f 35//7 36//5 34//7
f 43//6 35//7 34//7
f 34//7 38//7 37//7
f 37//7 30//8 31//7
f 34//7 37//7 31//7
f 31//7 29//9 33//7
f 33//7 32//7 45//7
f 31//7 33//7 45//7
f 45//7 46//9 44//7
f 44//7 48//7 47//7
f 45//7 44//7 47//7
f 31//7 45//7 47//7
f 34//7 31//7 47//7
f 43//6 34//7 47//7
f 41//5 43//6 47//7
f 40//7 41//5 47//7
f 69//10 30//11 37//12
f 37//12 65//13 69//10
f 77//14 35//15 42//16
f 42//16 73//17 77//14
f 85//18 45//19 32//20
f 32//20 81//21 85//18
f 93//22 40//23 47//24
f 47//24 89//25 93//22
f 49//4 51//26 52//27
f 52//27 50//28 49//4
f 50//28 52//27 3//29
f 3//29 2//30 50//28
f 51//26 6//31 7//32
f 7//32 52//27 51//26
f 52//27 7//32 1//33
f 1//33 3//29 52//27
f 53//1 55//34 56//35
f 56//35 54//36 53//1
f 54//36 56//35 12//37
f 12//37 11//38 54//36
f 55//34 9//39 10//40
f 10//40 56//35 55//34
f 56//35 10//40 8//41
f 8//41 12//37 56//35
f 57//2 59//42 60//43
f 60//43 58//44 57//2
f 58//44 60//43 19//45
f 19//45 18//46 58//44
f 59//42 16//47 17//48
f 17//48 60//43 59//42
f 60//43 17//48 15//49
f 15//49 19//45 60//43
f 61//3 63//50 64//51
f 64//51 62//52 61//3
f 62//52 64//51 24//53
f 24//53 23//54 62//52
f 63//50 27//55 28//56
f 28//56 64//51 63//50
f 64//51 28//56 22//57
f 22//57 24//53 64//51
f 65//13 67//58 68//59
f 68//59 66//60 65//13
f 66//60 68//59 10//40
f 10//40 9//39 66//60
f 67//58 13//61 14//62
f 14//62 68//59 67//58
f 68//59 14//62 8//41
f 8//41 10//40 68//59
f 69//10 71//63 72//64
f 72//64 70//65 69//10
f 70//65 72//64 5//66
f 5//66 4//67 70//65
f 71//63 2//30 3//29
f 3//29 72//64 71//63
f 72//64 3//29 1//33
f 1//33 5//66 72//64
f 73//17 75//68 76//69
f 76//69 74//70 73//17
f 74//70 76//69 17//48
f 17//48 16//47 74//70
f 75//68 20//71 21//72
f 21//72 76//69 75//68
f 76//69 21//72 15//49
f 15//49 17//48 76//69
f 77//14 79//73 80//74
f 80//74 78//75 77//14
f 78//75 80//74 14//62
f 14//62 13//61 78//75
f 79//73 11//38 12//37
f 12//37 80//74 79//73
f 80//74 12//37 8//41
f 8//41 14//62 80//74
f 81//21 83//76 84//77
f 84//77 82//78 81//21
f 82//78 84//77 7//32
f 7//32 6//31 82//78
f 83//76 4//67 5//66
f 5//66 84//77 83//76
f 84//77 5//66 1//33
f 1//33 7//32 84//77
f 85//18 87//79 88//80
f 88//80 86//81 85//18
f 86//81 88//80 26//82
f 26//82 25//83 86//81
f 87//79 23//54 24//53
f 24//53 88//80 87//79
f 88//80 24//53 22//57
f 22//57 26//82 88//80
f 89//25 91//84 92//85
f 92//85 90//86 89//25
f 90//86 92//85 28//56
f 28//56 27//55 90//86
f 91//84 25//83 26//82
f 26//82 92//85 91//84
f 92//85 26//82 22//57
f 22//57 28//56 92//85
f 93//22 95//87 96//88
f 96//88 94//89 93//22
f 94//89 96//88 21//72
f 21//72 20//71 94//89
f 95//87 18//46 19//45
f 19//45 96//88 95//87
f 96//88 19//45 15//49
f 15//49 21//72 96//88
f 53//1 49//4 50//28
f 50//28 55//34 53//1
f 55//34 50//28 2//30
f 2//30 9//39 55//34
f 57//2 53//1 54//36
f 54//36 59//42 57//2
f 59//42 54//36 11//38
f 11//38 16//47 59//42
f 61//3 57//2 58//44
f 58//44 63//50 61//3
f 63//50 58//44 18//46
f 18//46 27//55 63//50
f 49//4 61//3 62//52
f 62//52 51//26 49//4
f 51//26 62//52 23//54
f 23//54 6//31 51//26
f 69//10 65//13 66//60
f 66//60 71//63 69//10
f 71//63 66//60 9//39
f 9//39 2//30 71//63
f 30//11 69//10 70//65
f 70//65 31//90 30//11
f 31//90 70//65 4//67
f 4//67 29//91 31//90
f 65//13 37//12 38//92
f 38//92 67//58 65//13
f 67//58 38//92 34//93
f 34//93 13//61 67//58
f 77//14 73//17 74//70
f 74//70 79//73 77//14
f 79//73 74//70 16//47
f 16//47 11//38 79//73
f 35//15 77//14 78//75
f 78//75 36//94 35//15
f 36//94 78//75 13//61
f 13//61 34//93 36//94
f 73//17 42//16 43//95
f 43//95 75//68 73//17
f 75//68 43//95 39//96
f 39//96 20//71 75//68
f 85//18 81//21 82//78
f 82//78 87//79 85//18
f 87//79 82//78 6//31
f 6//31 23//54 87//79
f 45//19 85//18 86//81
f 86//81 46//97 45//19
f 46//97 86//81 25//83
f 25//83 44//98 46//97
f 81//21 32//20 33//99
f 33//99 83//76 81//21
f 83//76 33//99 29//91
f 29//91 4//67 83//76
f 93//22 89//25 90//86
f 90//86 95//87 93//22
f 95//87 90//86 27//55
f 27//55 18//46 95//87
f 40//23 93//22 94//89
f 94//89 41//100 40//23
f 41//100 94//89 20//71
f 20//71 39//96 41//100
f 89//25 47//24 48//101
f 48//101 91//84 89//25
f 91//84 48//101 44//98
f 44//98 25//83 91//84
