# Blender 3.4.1
# www.blender.org
mtllib Rectangle012.mtl
o Rectangle012
v -0.267748 1.050076 0.456316
v -0.266515 1.050427 0.456540
v -0.267191 1.050339 0.456495
v -0.267986 1.048320 0.456582
v -0.267926 1.049285 0.456515
v -0.268030 1.050427 0.455029
v -0.267948 1.050339 0.455739
v -0.247712 1.050076 0.455746
v -0.248930 1.050427 0.456040
v -0.248258 1.050339 0.455956
v -0.247504 1.050427 0.454445
v -0.247545 1.050339 0.455158
v -0.247459 1.048320 0.455998
v -0.247523 1.049285 0.455935
v -0.251171 1.050076 0.334163
v -0.250889 1.050427 0.335450
v -0.250971 1.050339 0.334740
v -0.252404 1.050427 0.333939
v -0.251728 1.050339 0.333984
v -0.250933 1.048320 0.333897
v -0.250993 1.049285 0.333963
v -0.271207 1.050076 0.334733
v -0.271415 1.050427 0.336034
v -0.271374 1.050339 0.335320
v -0.271460 1.048320 0.334481
v -0.271397 1.049285 0.334544
v -0.269989 1.050427 0.334439
v -0.270661 1.050339 0.334523
v -0.267986 1.021164 0.456582
v -0.266501 1.021164 0.457058
v -0.267362 1.021164 0.456953
v -0.268520 1.021164 0.455043
v -0.268372 1.021164 0.455945
v -0.247459 1.021164 0.455998
v -0.247014 1.021164 0.454431
v -0.247110 1.021164 0.455340
v -0.248915 1.021164 0.456557
v -0.248061 1.021164 0.456404
v -0.250933 1.021164 0.333897
v -0.252418 1.021164 0.333421
v -0.251557 1.021164 0.333526
v -0.250399 1.021164 0.335436
v -0.250547 1.021164 0.334533
v -0.271460 1.021164 0.334481
v -0.271906 1.021164 0.336048
v -0.271809 1.021164 0.335138
v -0.270004 1.021164 0.333921
v -0.270858 1.021164 0.334075
v -0.266560 1.051129 0.454987
v -0.266534 1.050954 0.455893
v -0.267417 1.050954 0.455011
v -0.267332 1.050778 0.455851
v -0.248974 1.051129 0.454487
v -0.248116 1.050954 0.454462
v -0.248948 1.050954 0.455393
v -0.248154 1.050778 0.455305
v -0.252360 1.051129 0.335492
v -0.252385 1.050954 0.334586
v -0.251502 1.050954 0.335467
v -0.251587 1.050778 0.334628
v -0.269945 1.051129 0.335992
v -0.270803 1.050954 0.336016
v -0.269971 1.050954 0.335086
v -0.270765 1.050778 0.335173
v -0.248915 1.048320 0.456557
v -0.248919 1.049549 0.456428
v -0.248061 1.048320 0.456404
v -0.248126 1.049461 0.456276
v -0.266501 1.048320 0.457058
v -0.267362 1.048320 0.456953
v -0.266504 1.049549 0.456928
v -0.267304 1.049461 0.456822
v -0.250399 1.048320 0.335436
v -0.250522 1.049549 0.335439
v -0.250547 1.048320 0.334533
v -0.250668 1.049461 0.334602
v -0.247014 1.048320 0.454431
v -0.247110 1.048320 0.455340
v -0.247136 1.049549 0.454434
v -0.247235 1.049461 0.455279
v -0.268520 1.048320 0.455043
v -0.268398 1.049549 0.455039
v -0.268372 1.048320 0.455945
v -0.268251 1.049461 0.455877
v -0.271906 1.048320 0.336048
v -0.271809 1.048320 0.335138
v -0.271783 1.049549 0.336044
v -0.271684 1.049461 0.335200
v -0.270004 1.048320 0.333921
v -0.270000 1.049549 0.334051
v -0.270858 1.048320 0.334075
v -0.270793 1.049461 0.334203
v -0.252418 1.048320 0.333421
v -0.251557 1.048320 0.333526
v -0.252415 1.049549 0.333550
v -0.251615 1.049461 0.333657
vn 0.1069 0.9897 0.0956
vn 0.1013 0.9897 -0.1015
vn -0.1069 0.9897 -0.0956
vn -0.1013 0.9897 0.1015
vn -0.0000 -1.0000 -0.0000
vn -0.0489 0.0539 0.9973
vn -0.0465 -0.0000 0.9989
vn 0.1032 -0.0000 0.9947
vn 0.1056 0.0539 0.9929
vn 0.9979 0.0511 0.0409
vn 0.9992 -0.0000 0.0387
vn 0.9954 -0.0000 -0.0955
vn 0.9939 0.0511 -0.0976
vn -0.9979 0.0511 -0.0409
vn -0.9992 -0.0000 -0.0387
vn -0.9954 -0.0000 0.0955
vn -0.9939 0.0511 0.0976
vn 0.0489 0.0539 -0.9973
vn 0.0465 -0.0000 -0.9989
vn -0.1032 -0.0000 -0.9947
vn -0.1056 0.0539 -0.9929
vn -0.4431 0.8894 0.1123
vn -0.4023 0.8220 0.4031
vn -0.0942 0.8982 0.4293
vn -0.2986 0.5622 0.7712
vn -0.0531 0.5918 0.8043
vn -0.8157 0.5711 0.0927
vn -0.7747 0.5470 0.3172
vn -0.6300 0.4522 0.6313
vn 0.1184 0.8982 0.4233
vn 0.4246 0.8220 0.3796
vn 0.4488 0.8894 0.0869
vn 0.7915 0.5470 0.2726
vn 0.8196 0.5711 0.0461
vn 0.0988 0.5918 0.8000
vn 0.3419 0.5623 0.7530
vn 0.6649 0.4522 0.5945
vn 0.4431 0.8894 -0.1123
vn 0.4023 0.8220 -0.4031
vn 0.0942 0.8982 -0.4293
vn 0.2986 0.5622 -0.7712
vn 0.0531 0.5918 -0.8043
vn 0.8157 0.5711 -0.0927
vn 0.7747 0.5470 -0.3172
vn 0.6300 0.4522 -0.6313
vn -0.1184 0.8982 -0.4233
vn -0.4246 0.8220 -0.3796
vn -0.4488 0.8894 -0.0869
vn -0.7915 0.5470 -0.2726
vn -0.8196 0.5711 -0.0461
vn -0.0988 0.5918 -0.8000
vn -0.3419 0.5623 -0.7530
vn -0.6649 0.4522 -0.5945
vn 0.3729 0.0571 0.9261
vn 0.3638 0.2360 0.9011
vn 0.1116 0.2492 0.9620
vn 0.7447 0.0454 0.6659
vn 0.7308 0.1977 0.6534
vn -0.0568 0.2492 0.9668
vn -0.3120 0.2360 0.9203
vn -0.3196 0.0571 0.9458
vn -0.6924 0.1977 0.6939
vn -0.7056 0.0454 0.7071
vn 0.9385 0.0547 -0.3410
vn 0.9151 0.2267 -0.3335
vn 0.9661 0.2368 -0.1033
vn 0.7056 0.0454 -0.7071
vn 0.6924 0.1977 -0.6939
vn 0.9704 0.2368 0.0482
vn 0.9326 0.2267 0.2809
vn 0.9563 0.0547 0.2871
vn -0.9385 0.0547 0.3410
vn -0.9151 0.2267 0.3335
vn -0.9661 0.2368 0.1033
vn -0.9704 0.2368 -0.0482
vn -0.9326 0.2267 -0.2809
vn -0.9563 0.0547 -0.2871
vn -0.7308 0.1977 -0.6534
vn -0.7447 0.0454 -0.6659
vn -0.3729 0.0571 -0.9261
vn -0.3638 0.2360 -0.9011
vn -0.1116 0.2492 -0.9620
vn 0.0568 0.2492 -0.9668
vn 0.3120 0.2360 -0.9203
vn 0.3196 0.0571 -0.9458
vn -0.3244 -0.0000 0.9459
vn -0.7064 -0.0000 0.7078
vn 0.3776 -0.0000 0.9259
vn 0.7455 -0.0000 0.6665
vn 0.9566 -0.0000 0.2915
vn 0.9384 -0.0000 -0.3454
vn 0.7064 -0.0000 -0.7078
vn -0.9566 -0.0000 -0.2915
vn -0.7455 -0.0000 -0.6665
vn -0.9384 -0.0000 0.3454
vn 0.3244 -0.0000 -0.9459
vn -0.3776 -0.0000 -0.9259
s 1
usemtl Material_#2093.002
f 53//1 57//2 61//3
f 61//3 49//4 53//1
f 41//5 39//5 43//5
f 43//5 42//5 35//5
f 35//5 36//5 34//5
f 43//5 35//5 34//5
f 34//5 38//5 37//5
f 37//5 30//5 31//5
f 34//5 37//5 31//5
f 31//5 29//5 33//5
f 33//5 32//5 45//5
f 31//5 33//5 45//5
f 45//5 46//5 44//5
f 44//5 48//5 47//5
f 45//5 44//5 47//5
f 31//5 45//5 47//5
f 34//5 31//5 47//5
f 43//5 34//5 47//5
f 41//5 43//5 47//5
f 40//5 41//5 47//5
f 69//6 30//7 37//8
f 37//8 65//9 69//6
f 77//10 35//11 42//12
f 42//12 73//13 77//10
f 85//14 45//15 32//16
f 32//16 81//17 85//14
f 93//18 40//19 47//20
f 47//20 89//21 93//18
f 49//4 51//22 52//23
f 52//23 50//24 49//4
f 50//24 52//23 3//25
f 3//25 2//26 50//24
f 51//22 6//27 7//28
f 7//28 52//23 51//22
f 52//23 7//28 1//29
f 1//29 3//25 52//23
f 53//1 55//30 56//31
f 56//31 54//32 53//1
f 54//32 56//31 12//33
f 12//33 11//34 54//32
f 55//30 9//35 10//36
f 10//36 56//31 55//30
f 56//31 10//36 8//37
f 8//37 12//33 56//31
f 57//2 59//38 60//39
f 60//39 58//40 57//2
f 58//40 60//39 19//41
f 19//41 18//42 58//40
f 59//38 16//43 17//44
f 17//44 60//39 59//38
f 60//39 17//44 15//45
f 15//45 19//41 60//39
f 61//3 63//46 64//47
f 64//47 62//48 61//3
f 62//48 64//47 24//49
f 24//49 23//50 62//48
f 63//46 27//51 28//52
f 28//52 64//47 63//46
f 64//47 28//52 22//53
f 22//53 24//49 64//47
f 65//9 67//54 68//55
f 68//55 66//56 65//9
f 66//56 68//55 10//36
f 10//36 9//35 66//56
f 67//54 13//57 14//58
f 14//58 68//55 67//54
f 68//55 14//58 8//37
f 8//37 10//36 68//55
f 69//6 71//59 72//60
f 72//60 70//61 69//6
f 70//61 72//60 5//62
f 5//62 4//63 70//61
f 71//59 2//26 3//25
f 3//25 72//60 71//59
f 72//60 3//25 1//29
f 1//29 5//62 72//60
f 73//13 75//64 76//65
f 76//65 74//66 73//13
f 74//66 76//65 17//44
f 17//44 16//43 74//66
f 75//64 20//67 21//68
f 21//68 76//65 75//64
f 76//65 21//68 15//45
f 15//45 17//44 76//65
f 77//10 79//69 80//70
f 80//70 78//71 77//10
f 78//71 80//70 14//58
f 14//58 13//57 78//71
f 79//69 11//34 12//33
f 12//33 80//70 79//69
f 80//70 12//33 8//37
f 8//37 14//58 80//70
f 81//17 83//72 84//73
f 84//73 82//74 81//17
f 82//74 84//73 7//28
f 7//28 6//27 82//74
f 83//72 4//63 5//62
f 5//62 84//73 83//72
f 84//73 5//62 1//29
f 1//29 7//28 84//73
f 85//14 87//75 88//76
f 88//76 86//77 85//14
f 86//77 88//76 26//78
f 26//78 25//79 86//77
f 87//75 23//50 24//49
f 24//49 88//76 87//75
f 88//76 24//49 22//53
f 22//53 26//78 88//76
f 89//21 91//80 92//81
f 92//81 90//82 89//21
f 90//82 92//81 28//52
f 28//52 27//51 90//82
f 91//80 25//79 26//78
f 26//78 92//81 91//80
f 92//81 26//78 22//53
f 22//53 28//52 92//81
f 93//18 95//83 96//84
f 96//84 94//85 93//18
f 94//85 96//84 21//68
f 21//68 20//67 94//85
f 95//83 18//42 19//41
f 19//41 96//84 95//83
f 96//84 19//41 15//45
f 15//45 21//68 96//84
f 53//1 49//4 50//24
f 50//24 55//30 53//1
f 55//30 50//24 2//26
f 2//26 9//35 55//30
f 57//2 53//1 54//32
f 54//32 59//38 57//2
f 59//38 54//32 11//34
f 11//34 16//43 59//38
f 61//3 57//2 58//40
f 58//40 63//46 61//3
f 63//46 58//40 18//42
f 18//42 27//51 63//46
f 49//4 61//3 62//48
f 62//48 51//22 49//4
f 51//22 62//48 23//50
f 23//50 6//27 51//22
f 69//6 65//9 66//56
f 66//56 71//59 69//6
f 71//59 66//56 9//35
f 9//35 2//26 71//59
f 30//7 69//6 70//61
f 70//61 31//86 30//7
f 31//86 70//61 4//63
f 4//63 29//87 31//86
f 65//9 37//8 38//88
f 38//88 67//54 65//9
f 67//54 38//88 34//89
f 34//89 13//57 67//54
f 77//10 73//13 74//66
f 74//66 79//69 77//10
f 79//69 74//66 16//43
f 16//43 11//34 79//69
f 35//11 77//10 78//71
f 78//71 36//90 35//11
f 36//90 78//71 13//57
f 13//57 34//89 36//90
f 73//13 42//12 43//91
f 43//91 75//64 73//13
f 75//64 43//91 39//92
f 39//92 20//67 75//64
f 85//14 81//17 82//74
f 82//74 87//75 85//14
f 87//75 82//74 6//27
f 6//27 23//50 87//75
f 45//15 85//14 86//77
f 86//77 46//93 45//15
f 46//93 86//77 25//79
f 25//79 44//94 46//93
f 81//17 32//16 33//95
f 33//95 83//72 81//17
f 83//72 33//95 29//87
f 29//87 4//63 83//72
f 93//18 89//21 90//82
f 90//82 95//83 93//18
f 95//83 90//82 27//51
f 27//51 18//42 95//83
f 40//19 93//18 94//85
f 94//85 41//96 40//19
f 41//96 94//85 20//67
f 20//67 39//92 41//96
f 89//21 47//20 48//97
f 48//97 91//80 89//21
f 91//80 48//97 44//94
f 44//94 25//79 91//80
