# Blender v3.4.1 OBJ File: 'untitled.blend'
# www.blender.org
mtllib Rectangle018.mtl
o Rectangle018_Mesh.043
v -0.015870 1.050076 0.449150
v -0.014637 1.050427 0.449374
v -0.015313 1.050339 0.449328
v -0.016108 1.048320 0.449416
v -0.016048 1.049285 0.449349
v -0.016152 1.050427 0.447862
v -0.016070 1.050339 0.448573
v 0.004166 1.050076 0.448580
v 0.002948 1.050427 0.448873
v 0.003620 1.050339 0.448790
v 0.004374 1.050427 0.447278
v 0.004333 1.050339 0.447992
v 0.004419 1.048320 0.448832
v 0.004356 1.049285 0.448769
v 0.000707 1.050076 0.326996
v 0.000989 1.050427 0.328284
v 0.000907 1.050339 0.327574
v -0.000526 1.050427 0.326772
v 0.000150 1.050339 0.326818
v 0.000945 1.048320 0.326730
v 0.000885 1.049285 0.326797
v -0.019329 1.050076 0.327566
v -0.019537 1.050427 0.328868
v -0.019496 1.050339 0.328154
v -0.019582 1.048320 0.327314
v -0.019518 1.049285 0.327377
v -0.018111 1.050427 0.327273
v -0.018783 1.050339 0.327357
v -0.016108 1.021164 0.449416
v -0.014623 1.021164 0.449892
v -0.015484 1.021164 0.449787
v -0.016642 1.021164 0.447876
v -0.016494 1.021164 0.448779
v 0.004419 1.021164 0.448832
v 0.004865 1.021164 0.447264
v 0.004768 1.021164 0.448174
v 0.002963 1.021164 0.449391
v 0.003817 1.021164 0.449237
v 0.000945 1.021164 0.326730
v -0.000540 1.021164 0.326255
v 0.000321 1.021164 0.326360
v 0.001479 1.021164 0.328270
v 0.001331 1.021164 0.327367
v -0.019582 1.021164 0.327314
v -0.020027 1.021164 0.328882
v -0.019931 1.021164 0.327972
v -0.018126 1.021164 0.326755
v -0.018980 1.021164 0.326909
v -0.014681 1.051129 0.447821
v -0.014656 1.050954 0.448727
v -0.015539 1.050954 0.447845
v -0.015454 1.050778 0.448685
v 0.002904 1.051129 0.447320
v 0.003762 1.050954 0.447296
v 0.002930 1.050954 0.448226
v 0.003724 1.050778 0.448139
v -0.000481 1.051129 0.328326
v -0.000507 1.050954 0.327419
v 0.000376 1.050954 0.328301
v 0.000291 1.050778 0.327462
v -0.018067 1.051129 0.328826
v -0.018925 1.050954 0.328850
v -0.018093 1.050954 0.327920
v -0.018887 1.050778 0.328007
v 0.002963 1.048320 0.449391
v 0.002959 1.049549 0.449262
v 0.003817 1.048320 0.449237
v 0.003752 1.049461 0.449110
v -0.014623 1.048320 0.449892
v -0.015484 1.048320 0.449787
v -0.014626 1.049549 0.449762
v -0.015426 1.049461 0.449655
v 0.001479 1.048320 0.328270
v 0.001357 1.049549 0.328273
v 0.001331 1.048320 0.327367
v 0.001210 1.049461 0.327435
v 0.004865 1.048320 0.447264
v 0.004768 1.048320 0.448174
v 0.004742 1.049549 0.447268
v 0.004643 1.049461 0.448113
v -0.016642 1.048320 0.447876
v -0.016519 1.049549 0.447873
v -0.016494 1.048320 0.448779
v -0.016373 1.049461 0.448711
v -0.020027 1.048320 0.328882
v -0.019931 1.048320 0.327972
v -0.019905 1.049549 0.328878
v -0.019806 1.049461 0.328033
v -0.018126 1.048320 0.326755
v -0.018122 1.049549 0.326884
v -0.018980 1.048320 0.326909
v -0.018915 1.049461 0.327036
v -0.000540 1.048320 0.326255
v 0.000321 1.048320 0.326360
v -0.000537 1.049549 0.326384
v 0.000263 1.049461 0.326491
vn 0.1058 0.9898 0.0949
vn 0.1002 0.9899 -0.1007
vn -0.1058 0.9898 -0.0950
vn -0.1002 0.9898 0.1008
vn 0.0000 -1.0000 -0.0001
vn 0.0000 -1.0000 0.0002
vn 0.0000 -1.0000 -0.0000
vn 0.0000 -1.0000 -0.0005
vn 0.0000 -1.0000 0.0021
vn 0.0000 -1.0000 0.0001
vn 0.0000 -1.0000 -0.0002
vn 0.0000 -1.0000 0.0005
vn 0.0000 -1.0000 0.0016
vn -0.0483 0.0546 0.9973
vn -0.0465 0.0000 0.9989
vn 0.1031 0.0000 0.9947
vn 0.1050 0.0546 0.9930
vn 0.9978 0.0517 0.0406
vn 0.9992 0.0000 0.0388
vn 0.9954 0.0000 -0.0955
vn 0.9939 0.0517 -0.0973
vn -0.9978 0.0517 -0.0406
vn -0.9992 0.0000 -0.0388
vn -0.9954 0.0000 0.0955
vn -0.9939 0.0517 0.0973
vn 0.0483 0.0546 -0.9973
vn 0.0465 0.0000 -0.9989
vn -0.1032 0.0000 -0.9947
vn -0.1050 0.0545 -0.9930
vn -0.4278 0.8969 0.1121
vn -0.3922 0.8310 0.3944
vn -0.0946 0.9041 0.4167
vn -0.2986 0.5801 0.7579
vn -0.0537 0.6076 0.7924
vn -0.8025 0.5894 0.0928
vn -0.7590 0.5677 0.3189
vn -0.6263 0.4577 0.6311
vn 0.1182 0.9041 0.4107
vn 0.4140 0.8310 0.3715
vn 0.4334 0.8969 0.0876
vn 0.7759 0.5677 0.2753
vn 0.8065 0.5894 0.0470
vn 0.0987 0.6076 0.7881
vn 0.3412 0.5801 0.7397
vn 0.6612 0.4577 0.5944
vn 0.4278 0.8969 -0.1121
vn 0.3922 0.8310 -0.3945
vn 0.0946 0.9041 -0.4167
vn 0.2986 0.5801 -0.7579
vn 0.0537 0.6076 -0.7924
vn 0.8025 0.5894 -0.0928
vn 0.7589 0.5677 -0.3190
vn 0.6263 0.4577 -0.6311
vn -0.1182 0.9041 -0.4107
vn -0.4140 0.8310 -0.3715
vn -0.4334 0.8969 -0.0876
vn -0.7759 0.5677 -0.2753
vn -0.8064 0.5894 -0.0470
vn -0.0987 0.6076 -0.7881
vn -0.3412 0.5801 -0.7397
vn -0.6612 0.4577 -0.5944
vn 0.3721 0.0565 0.9265
vn 0.3651 0.2389 0.8998
vn 0.1126 0.2543 0.9605
vn 0.7423 0.0456 0.6685
vn 0.7276 0.1990 0.6565
vn -0.0579 0.2543 0.9654
vn -0.3133 0.2389 0.9191
vn -0.3188 0.0565 0.9461
vn -0.6891 0.1990 0.6968
vn -0.7031 0.0456 0.7096
vn 0.9378 0.0542 -0.3430
vn 0.9130 0.2303 -0.3368
vn 0.9645 0.2425 -0.1042
vn 0.7031 0.0456 -0.7096
vn 0.6891 0.1990 -0.6968
vn 0.9689 0.2425 0.0492
vn 0.9306 0.2303 0.2843
vn 0.9558 0.0542 0.2891
vn -0.9378 0.0542 0.3430
vn -0.9130 0.2303 0.3368
vn -0.9645 0.2425 0.1042
vn -0.9689 0.2425 -0.0492
vn -0.9306 0.2303 -0.2843
vn -0.9558 0.0542 -0.2891
vn -0.7276 0.1990 -0.6565
vn -0.7423 0.0456 -0.6685
vn -0.3721 0.0565 -0.9265
vn -0.3651 0.2389 -0.8998
vn -0.1127 0.2543 -0.9605
vn 0.0579 0.2543 -0.9654
vn 0.3133 0.2389 -0.9191
vn 0.3188 0.0565 -0.9461
vn -0.3230 0.0000 0.9464
vn -0.7041 0.0000 0.7101
vn 0.3763 0.0000 0.9265
vn 0.7433 0.0000 0.6689
vn 0.9562 0.0000 0.2927
vn 0.9380 0.0000 -0.3466
vn 0.7041 0.0000 -0.7101
vn -0.9562 0.0000 -0.2927
vn -0.7433 0.0000 -0.6689
vn -0.9380 0.0000 0.3466
vn 0.3230 0.0000 -0.9464
vn -0.3763 0.0000 -0.9265
usemtl Material_#2093
s 1
f 53//1 57//2 61//3
f 61//3 49//4 53//1
f 41//5 39//6 43//7
f 43//7 42//7 35//7
f 35//7 36//6 34//7
f 43//7 35//7 34//7
f 34//7 38//8 37//7
f 37//7 30//9 31//10
f 34//7 37//7 31//10
f 31//10 29//8 33//7
f 33//7 32//7 45//7
f 31//10 33//7 45//7
f 45//7 46//11 44//7
f 44//7 48//12 47//7
f 45//7 44//7 47//7
f 31//10 45//7 47//7
f 34//7 31//10 47//7
f 43//7 34//7 47//7
f 41//5 43//7 47//7
f 40//13 41//5 47//7
f 69//14 30//15 37//16
f 37//16 65//17 69//14
f 77//18 35//19 42//20
f 42//20 73//21 77//18
f 85//22 45//23 32//24
f 32//24 81//25 85//22
f 93//26 40//27 47//28
f 47//28 89//29 93//26
f 49//4 51//30 52//31
f 52//31 50//32 49//4
f 50//32 52//31 3//33
f 3//33 2//34 50//32
f 51//30 6//35 7//36
f 7//36 52//31 51//30
f 52//31 7//36 1//37
f 1//37 3//33 52//31
f 53//1 55//38 56//39
f 56//39 54//40 53//1
f 54//40 56//39 12//41
f 12//41 11//42 54//40
f 55//38 9//43 10//44
f 10//44 56//39 55//38
f 56//39 10//44 8//45
f 8//45 12//41 56//39
f 57//2 59//46 60//47
f 60//47 58//48 57//2
f 58//48 60//47 19//49
f 19//49 18//50 58//48
f 59//46 16//51 17//52
f 17//52 60//47 59//46
f 60//47 17//52 15//53
f 15//53 19//49 60//47
f 61//3 63//54 64//55
f 64//55 62//56 61//3
f 62//56 64//55 24//57
f 24//57 23//58 62//56
f 63//54 27//59 28//60
f 28//60 64//55 63//54
f 64//55 28//60 22//61
f 22//61 24//57 64//55
f 65//17 67//62 68//63
f 68//63 66//64 65//17
f 66//64 68//63 10//44
f 10//44 9//43 66//64
f 67//62 13//65 14//66
f 14//66 68//63 67//62
f 68//63 14//66 8//45
f 8//45 10//44 68//63
f 69//14 71//67 72//68
f 72//68 70//69 69//14
f 70//69 72//68 5//70
f 5//70 4//71 70//69
f 71//67 2//34 3//33
f 3//33 72//68 71//67
f 72//68 3//33 1//37
f 1//37 5//70 72//68
f 73//21 75//72 76//73
f 76//73 74//74 73//21
f 74//74 76//73 17//52
f 17//52 16//51 74//74
f 75//72 20//75 21//76
f 21//76 76//73 75//72
f 76//73 21//76 15//53
f 15//53 17//52 76//73
f 77//18 79//77 80//78
f 80//78 78//79 77//18
f 78//79 80//78 14//66
f 14//66 13//65 78//79
f 79//77 11//42 12//41
f 12//41 80//78 79//77
f 80//78 12//41 8//45
f 8//45 14//66 80//78
f 81//25 83//80 84//81
f 84//81 82//82 81//25
f 82//82 84//81 7//36
f 7//36 6//35 82//82
f 83//80 4//71 5//70
f 5//70 84//81 83//80
f 84//81 5//70 1//37
f 1//37 7//36 84//81
f 85//22 87//83 88//84
f 88//84 86//85 85//22
f 86//85 88//84 26//86
f 26//86 25//87 86//85
f 87//83 23//58 24//57
f 24//57 88//84 87//83
f 88//84 24//57 22//61
f 22//61 26//86 88//84
f 89//29 91//88 92//89
f 92//89 90//90 89//29
f 90//90 92//89 28//60
f 28//60 27//59 90//90
f 91//88 25//87 26//86
f 26//86 92//89 91//88
f 92//89 26//86 22//61
f 22//61 28//60 92//89
f 93//26 95//91 96//92
f 96//92 94//93 93//26
f 94//93 96//92 21//76
f 21//76 20//75 94//93
f 95//91 18//50 19//49
f 19//49 96//92 95//91
f 96//92 19//49 15//53
f 15//53 21//76 96//92
f 53//1 49//4 50//32
f 50//32 55//38 53//1
f 55//38 50//32 2//34
f 2//34 9//43 55//38
f 57//2 53//1 54//40
f 54//40 59//46 57//2
f 59//46 54//40 11//42
f 11//42 16//51 59//46
f 61//3 57//2 58//48
f 58//48 63//54 61//3
f 63//54 58//48 18//50
f 18//50 27//59 63//54
f 49//4 61//3 62//56
f 62//56 51//30 49//4
f 51//30 62//56 23//58
f 23//58 6//35 51//30
f 69//14 65//17 66//64
f 66//64 71//67 69//14
f 71//67 66//64 9//43
f 9//43 2//34 71//67
f 30//15 69//14 70//69
f 70//69 31//94 30//15
f 31//94 70//69 4//71
f 4//71 29//95 31//94
f 65//17 37//16 38//96
f 38//96 67//62 65//17
f 67//62 38//96 34//97
f 34//97 13//65 67//62
f 77//18 73//21 74//74
f 74//74 79//77 77//18
f 79//77 74//74 16//51
f 16//51 11//42 79//77
f 35//19 77//18 78//79
f 78//79 36//98 35//19
f 36//98 78//79 13//65
f 13//65 34//97 36//98
f 73//21 42//20 43//99
f 43//99 75//72 73//21
f 75//72 43//99 39//100
f 39//100 20//75 75//72
f 85//22 81//25 82//82
f 82//82 87//83 85//22
f 87//83 82//82 6//35
f 6//35 23//58 87//83
f 45//23 85//22 86//85
f 86//85 46//101 45//23
f 46//101 86//85 25//87
f 25//87 44//102 46//101
f 81//25 32//24 33//103
f 33//103 83//80 81//25
f 83//80 33//103 29//95
f 29//95 4//71 83//80
f 93//26 89//29 90//90
f 90//90 95//91 93//26
f 95//91 90//90 27//59
f 27//59 18//50 95//91
f 40//27 93//26 94//93
f 94//93 41//104 40//27
f 41//104 94//93 20//75
f 20//75 39//100 41//104
f 89//29 47//28 48//105
f 48//105 91//88 89//29
f 91//88 48//105 44//102
f 44//102 25//87 91//88
