# Blender v3.4.1 OBJ File: 'untitled.blend'
# www.blender.org
mtllib Rectangle019.mtl
o Rectangle019_Mesh.044
v 0.045779 1.050076 0.447396
v 0.047012 1.050427 0.447620
v 0.046336 1.050339 0.447574
v 0.045542 1.048320 0.447662
v 0.045601 1.049285 0.447595
v 0.045497 1.050427 0.446108
v 0.045579 1.050339 0.446819
v 0.065815 1.050076 0.446826
v 0.064597 1.050427 0.447119
v 0.065270 1.050339 0.447036
v 0.066024 1.050427 0.445524
v 0.065983 1.050339 0.446238
v 0.066068 1.048320 0.447078
v 0.066005 1.049285 0.447015
v 0.062356 1.050076 0.325242
v 0.062638 1.050427 0.326530
v 0.062557 1.050339 0.325820
v 0.061124 1.050427 0.325018
v 0.061799 1.050339 0.325064
v 0.062594 1.048320 0.324976
v 0.062534 1.049285 0.325043
v 0.042320 1.050076 0.325812
v 0.042112 1.050427 0.327114
v 0.042153 1.050339 0.326400
v 0.042068 1.048320 0.325560
v 0.042131 1.049285 0.325623
v 0.043538 1.050427 0.325519
v 0.042866 1.050339 0.325603
v 0.045542 1.021164 0.447662
v 0.047027 1.021164 0.448138
v 0.046165 1.021164 0.448032
v 0.045007 1.021164 0.446122
v 0.045156 1.021164 0.447025
v 0.066068 1.021164 0.447078
v 0.066514 1.021164 0.445510
v 0.066417 1.021164 0.446420
v 0.064612 1.021164 0.447637
v 0.065466 1.021164 0.447483
v 0.062594 1.021164 0.324976
v 0.061109 1.021164 0.324501
v 0.061970 1.021164 0.324606
v 0.063128 1.021164 0.326516
v 0.062980 1.021164 0.325613
v 0.042068 1.021164 0.325560
v 0.041622 1.021164 0.327128
v 0.041718 1.021164 0.326218
v 0.043523 1.021164 0.325001
v 0.042669 1.021164 0.325155
v 0.046968 1.051129 0.446067
v 0.046994 1.050954 0.446973
v 0.046110 1.050954 0.446091
v 0.046195 1.050778 0.446931
v 0.064553 1.051129 0.445566
v 0.065411 1.050954 0.445542
v 0.064579 1.050954 0.446472
v 0.065374 1.050778 0.446385
v 0.061168 1.051129 0.326571
v 0.061142 1.050954 0.325665
v 0.062025 1.050954 0.326547
v 0.061940 1.050778 0.325707
v 0.043582 1.051129 0.327072
v 0.042724 1.050954 0.327096
v 0.043556 1.050954 0.326166
v 0.042762 1.050778 0.326253
v 0.064612 1.048320 0.447637
v 0.064608 1.049549 0.447508
v 0.065466 1.048320 0.447483
v 0.065401 1.049461 0.447356
v 0.047027 1.048320 0.448138
v 0.046165 1.048320 0.448032
v 0.047023 1.049549 0.448008
v 0.046223 1.049461 0.447901
v 0.063128 1.048320 0.326516
v 0.063006 1.049549 0.326519
v 0.062980 1.048320 0.325613
v 0.062859 1.049461 0.325681
v 0.066514 1.048320 0.445510
v 0.066417 1.048320 0.446420
v 0.066391 1.049549 0.445514
v 0.066293 1.049461 0.446359
v 0.045007 1.048320 0.446122
v 0.045130 1.049549 0.446119
v 0.045156 1.048320 0.447025
v 0.045276 1.049461 0.446957
v 0.041622 1.048320 0.327128
v 0.041718 1.048320 0.326218
v 0.041744 1.049549 0.327124
v 0.041843 1.049461 0.326279
v 0.043523 1.048320 0.325001
v 0.043527 1.049549 0.325130
v 0.042669 1.048320 0.325155
v 0.042734 1.049461 0.325282
v 0.061109 1.048320 0.324501
v 0.061970 1.048320 0.324606
v 0.061112 1.049549 0.324630
v 0.061913 1.049461 0.324737
vn 0.1058 0.9898 0.0949
vn 0.1002 0.9898 -0.1008
vn -0.1058 0.9898 -0.0950
vn -0.1002 0.9898 0.1008
vn 0.0000 -1.0000 0.0000
vn 0.0000 -1.0000 0.0002
vn 0.0000 -1.0000 0.0005
vn 0.0000 -1.0000 -0.0005
vn -0.0483 0.0546 0.9973
vn -0.0464 0.0000 0.9989
vn 0.1031 0.0000 0.9947
vn 0.1050 0.0546 0.9930
vn 0.9978 0.0517 0.0406
vn 0.9992 0.0000 0.0388
vn 0.9954 0.0000 -0.0955
vn 0.9939 0.0517 -0.0973
vn -0.9978 0.0517 -0.0406
vn -0.9992 0.0000 -0.0388
vn -0.9954 0.0000 0.0955
vn -0.9939 0.0517 0.0973
vn 0.0484 0.0546 -0.9973
vn 0.0464 0.0000 -0.9989
vn -0.1031 0.0000 -0.9947
vn -0.1050 0.0546 -0.9930
vn -0.4278 0.8969 0.1121
vn -0.3922 0.8310 0.3944
vn -0.0946 0.9041 0.4167
vn -0.2986 0.5801 0.7579
vn -0.0537 0.6076 0.7924
vn -0.8025 0.5894 0.0928
vn -0.7590 0.5677 0.3189
vn -0.6264 0.4577 0.6311
vn 0.1182 0.9041 0.4107
vn 0.4140 0.8310 0.3715
vn 0.4334 0.8969 0.0876
vn 0.7759 0.5677 0.2752
vn 0.8064 0.5894 0.0470
vn 0.0987 0.6076 0.7881
vn 0.3412 0.5801 0.7397
vn 0.6612 0.4577 0.5944
vn 0.4278 0.8969 -0.1121
vn 0.3922 0.8310 -0.3944
vn 0.0946 0.9041 -0.4167
vn 0.2986 0.5801 -0.7579
vn 0.0537 0.6076 -0.7924
vn 0.8025 0.5894 -0.0928
vn 0.7590 0.5677 -0.3189
vn 0.6264 0.4577 -0.6310
vn -0.1182 0.9041 -0.4107
vn -0.4140 0.8310 -0.3715
vn -0.4334 0.8969 -0.0876
vn -0.7759 0.5677 -0.2753
vn -0.8064 0.5894 -0.0470
vn -0.0987 0.6076 -0.7881
vn -0.3412 0.5801 -0.7396
vn -0.6612 0.4577 -0.5944
vn 0.3721 0.0565 0.9265
vn 0.3651 0.2389 0.8998
vn 0.1126 0.2543 0.9605
vn 0.7423 0.0456 0.6685
vn 0.7276 0.1990 0.6565
vn -0.0578 0.2543 0.9654
vn -0.3133 0.2388 0.9191
vn -0.3188 0.0565 0.9461
vn -0.6892 0.1990 0.6968
vn -0.7031 0.0456 0.7096
vn 0.9378 0.0542 -0.3430
vn 0.9130 0.2303 -0.3368
vn 0.9645 0.2425 -0.1042
vn 0.7031 0.0456 -0.7096
vn 0.6891 0.1990 -0.6968
vn 0.9689 0.2425 0.0492
vn 0.9306 0.2303 0.2843
vn 0.9558 0.0542 0.2891
vn -0.9378 0.0542 0.3430
vn -0.9130 0.2303 0.3368
vn -0.9645 0.2425 0.1042
vn -0.9689 0.2425 -0.0492
vn -0.9306 0.2303 -0.2843
vn -0.9558 0.0542 -0.2891
vn -0.7276 0.1990 -0.6565
vn -0.7423 0.0456 -0.6685
vn -0.3721 0.0565 -0.9265
vn -0.3650 0.2388 -0.8998
vn -0.1126 0.2543 -0.9605
vn 0.0579 0.2543 -0.9654
vn 0.3133 0.2388 -0.9191
vn 0.3188 0.0565 -0.9461
vn -0.3230 0.0000 0.9464
vn -0.7041 0.0000 0.7101
vn 0.3763 0.0000 0.9265
vn 0.7433 0.0000 0.6689
vn 0.9562 0.0000 0.2927
vn 0.9380 0.0000 -0.3466
vn 0.7041 0.0000 -0.7101
vn -0.9562 0.0000 -0.2927
vn -0.7433 0.0000 -0.6689
vn -0.9380 0.0000 0.3466
vn 0.3230 0.0000 -0.9464
vn -0.3763 0.0000 -0.9265
usemtl Material_#2093
s 1
f 53//1 57//2 61//3
f 61//3 49//4 53//1
f 41//5 39//6 43//5
f 43//5 42//5 35//5
f 35//5 36//5 34//5
f 43//5 35//5 34//5
f 34//5 38//7 37//5
f 37//5 30//7 31//5
f 34//5 37//5 31//5
f 31//5 29//8 33//5
f 33//5 32//5 45//5
f 31//5 33//5 45//5
f 45//5 46//5 44//5
f 44//5 48//5 47//5
f 45//5 44//5 47//5
f 31//5 45//5 47//5
f 34//5 31//5 47//5
f 43//5 34//5 47//5
f 41//5 43//5 47//5
f 40//5 41//5 47//5
f 69//9 30//10 37//11
f 37//11 65//12 69//9
f 77//13 35//14 42//15
f 42//15 73//16 77//13
f 85//17 45//18 32//19
f 32//19 81//20 85//17
f 93//21 40//22 47//23
f 47//23 89//24 93//21
f 49//4 51//25 52//26
f 52//26 50//27 49//4
f 50//27 52//26 3//28
f 3//28 2//29 50//27
f 51//25 6//30 7//31
f 7//31 52//26 51//25
f 52//26 7//31 1//32
f 1//32 3//28 52//26
f 53//1 55//33 56//34
f 56//34 54//35 53//1
f 54//35 56//34 12//36
f 12//36 11//37 54//35
f 55//33 9//38 10//39
f 10//39 56//34 55//33
f 56//34 10//39 8//40
f 8//40 12//36 56//34
f 57//2 59//41 60//42
f 60//42 58//43 57//2
f 58//43 60//42 19//44
f 19//44 18//45 58//43
f 59//41 16//46 17//47
f 17//47 60//42 59//41
f 60//42 17//47 15//48
f 15//48 19//44 60//42
f 61//3 63//49 64//50
f 64//50 62//51 61//3
f 62//51 64//50 24//52
f 24//52 23//53 62//51
f 63//49 27//54 28//55
f 28//55 64//50 63//49
f 64//50 28//55 22//56
f 22//56 24//52 64//50
f 65//12 67//57 68//58
f 68//58 66//59 65//12
f 66//59 68//58 10//39
f 10//39 9//38 66//59
f 67//57 13//60 14//61
f 14//61 68//58 67//57
f 68//58 14//61 8//40
f 8//40 10//39 68//58
f 69//9 71//62 72//63
f 72//63 70//64 69//9
f 70//64 72//63 5//65
f 5//65 4//66 70//64
f 71//62 2//29 3//28
f 3//28 72//63 71//62
f 72//63 3//28 1//32
f 1//32 5//65 72//63
f 73//16 75//67 76//68
f 76//68 74//69 73//16
f 74//69 76//68 17//47
f 17//47 16//46 74//69
f 75//67 20//70 21//71
f 21//71 76//68 75//67
f 76//68 21//71 15//48
f 15//48 17//47 76//68
f 77//13 79//72 80//73
f 80//73 78//74 77//13
f 78//74 80//73 14//61
f 14//61 13//60 78//74
f 79//72 11//37 12//36
f 12//36 80//73 79//72
f 80//73 12//36 8//40
f 8//40 14//61 80//73
f 81//20 83//75 84//76
f 84//76 82//77 81//20
f 82//77 84//76 7//31
f 7//31 6//30 82//77
f 83//75 4//66 5//65
f 5//65 84//76 83//75
f 84//76 5//65 1//32
f 1//32 7//31 84//76
f 85//17 87//78 88//79
f 88//79 86//80 85//17
f 86//80 88//79 26//81
f 26//81 25//82 86//80
f 87//78 23//53 24//52
f 24//52 88//79 87//78
f 88//79 24//52 22//56
f 22//56 26//81 88//79
f 89//24 91//83 92//84
f 92//84 90//85 89//24
f 90//85 92//84 28//55
f 28//55 27//54 90//85
f 91//83 25//82 26//81
f 26//81 92//84 91//83
f 92//84 26//81 22//56
f 22//56 28//55 92//84
f 93//21 95//86 96//87
f 96//87 94//88 93//21
f 94//88 96//87 21//71
f 21//71 20//70 94//88
f 95//86 18//45 19//44
f 19//44 96//87 95//86
f 96//87 19//44 15//48
f 15//48 21//71 96//87
f 53//1 49//4 50//27
f 50//27 55//33 53//1
f 55//33 50//27 2//29
f 2//29 9//38 55//33
f 57//2 53//1 54//35
f 54//35 59//41 57//2
f 59//41 54//35 11//37
f 11//37 16//46 59//41
f 61//3 57//2 58//43
f 58//43 63//49 61//3
f 63//49 58//43 18//45
f 18//45 27//54 63//49
f 49//4 61//3 62//51
f 62//51 51//25 49//4
f 51//25 62//51 23//53
f 23//53 6//30 51//25
f 69//9 65//12 66//59
f 66//59 71//62 69//9
f 71//62 66//59 9//38
f 9//38 2//29 71//62
f 30//10 69//9 70//64
f 70//64 31//89 30//10
f 31//89 70//64 4//66
f 4//66 29//90 31//89
f 65//12 37//11 38//91
f 38//91 67//57 65//12
f 67//57 38//91 34//92
f 34//92 13//60 67//57
f 77//13 73//16 74//69
f 74//69 79//72 77//13
f 79//72 74//69 16//46
f 16//46 11//37 79//72
f 35//14 77//13 78//74
f 78//74 36//93 35//14
f 36//93 78//74 13//60
f 13//60 34//92 36//93
f 73//16 42//15 43//94
f 43//94 75//67 73//16
f 75//67 43//94 39//95
f 39//95 20//70 75//67
f 85//17 81//20 82//77
f 82//77 87//78 85//17
f 87//78 82//77 6//30
f 6//30 23//53 87//78
f 45//18 85//17 86//80
f 86//80 46//96 45//18
f 46//96 86//80 25//82
f 25//82 44//97 46//96
f 81//20 32//19 33//98
f 33//98 83//75 81//20
f 83//75 33//98 29//90
f 29//90 4//66 83//75
f 93//21 89//24 90//85
f 90//85 95//86 93//21
f 95//86 90//85 27//54
f 27//54 18//45 95//86
f 40//22 93//21 94//88
f 94//88 41//99 40//22
f 41//99 94//88 20//70
f 20//70 39//95 41//99
f 89//24 47//23 48//100
f 48//100 91//83 89//24
f 91//83 48//100 44//97
f 44//97 25//82 91//83
