# Blender v3.4.1 OBJ File: 'untitled.blend'
# www.blender.org
mtllib Rectangle014.mtl
o Rectangle014_Mesh.039
v -0.173909 1.050076 0.453646
v -0.172676 1.050427 0.453870
v -0.173352 1.050339 0.453825
v -0.174147 1.048320 0.453912
v -0.174087 1.049285 0.453846
v -0.174191 1.050427 0.452359
v -0.174109 1.050339 0.453069
v -0.153873 1.050076 0.453076
v -0.155091 1.050427 0.453370
v -0.154419 1.050339 0.453286
v -0.153665 1.050427 0.451775
v -0.153706 1.050339 0.452488
v -0.153620 1.048320 0.453328
v -0.153684 1.049285 0.453265
v -0.157332 1.050076 0.331493
v -0.157050 1.050427 0.332780
v -0.157132 1.050339 0.332070
v -0.158565 1.050427 0.331269
v -0.157889 1.050339 0.331314
v -0.157094 1.048320 0.331227
v -0.157154 1.049285 0.331293
v -0.177368 1.050076 0.332063
v -0.177576 1.050427 0.333364
v -0.177535 1.050339 0.332650
v -0.177621 1.048320 0.331811
v -0.177558 1.049285 0.331874
v -0.176150 1.050427 0.331769
v -0.176822 1.050339 0.331853
v -0.174147 1.021164 0.453912
v -0.172662 1.021164 0.454388
v -0.173523 1.021164 0.454283
v -0.174681 1.021164 0.452373
v -0.174533 1.021164 0.453275
v -0.153620 1.021164 0.453328
v -0.153175 1.021164 0.451761
v -0.153271 1.021164 0.452670
v -0.155076 1.021164 0.453888
v -0.154222 1.021164 0.453734
v -0.157094 1.021164 0.331227
v -0.158579 1.021164 0.330751
v -0.157718 1.021164 0.330856
v -0.156560 1.021164 0.332766
v -0.156708 1.021164 0.331864
v -0.177621 1.021164 0.331811
v -0.178067 1.021164 0.333378
v -0.177970 1.021164 0.332468
v -0.176165 1.021164 0.331251
v -0.177019 1.021164 0.331405
v -0.172721 1.051129 0.452317
v -0.172695 1.050954 0.453223
v -0.173578 1.050954 0.452341
v -0.173493 1.050778 0.453181
v -0.155135 1.051129 0.451817
v -0.154277 1.050954 0.451792
v -0.155109 1.050954 0.452723
v -0.154315 1.050778 0.452635
v -0.158521 1.051129 0.332822
v -0.158546 1.050954 0.331916
v -0.157663 1.050954 0.332797
v -0.157748 1.050778 0.331958
v -0.176106 1.051129 0.333322
v -0.176964 1.050954 0.333347
v -0.176132 1.050954 0.332416
v -0.176926 1.050778 0.332504
v -0.155076 1.048320 0.453888
v -0.155080 1.049549 0.453758
v -0.154222 1.048320 0.453734
v -0.154287 1.049461 0.453606
v -0.172662 1.048320 0.454388
v -0.173523 1.048320 0.454283
v -0.172665 1.049549 0.454259
v -0.173465 1.049461 0.454152
v -0.156560 1.048320 0.332766
v -0.156683 1.049549 0.332770
v -0.156708 1.048320 0.331864
v -0.156829 1.049461 0.331932
v -0.153175 1.048320 0.451761
v -0.153271 1.048320 0.452670
v -0.153297 1.049549 0.451764
v -0.153396 1.049461 0.452609
v -0.174681 1.048320 0.452373
v -0.174559 1.049549 0.452369
v -0.174533 1.048320 0.453275
v -0.174412 1.049461 0.453207
v -0.178067 1.048320 0.333378
v -0.177970 1.048320 0.332468
v -0.177944 1.049549 0.333375
v -0.177845 1.049461 0.332530
v -0.176165 1.048320 0.331251
v -0.176161 1.049549 0.331381
v -0.177019 1.048320 0.331405
v -0.176954 1.049461 0.331533
v -0.158579 1.048320 0.330751
v -0.157718 1.048320 0.330856
v -0.158576 1.049549 0.330880
v -0.157776 1.049461 0.330987
vn 0.1058 0.9898 0.0950
vn 0.1002 0.9898 -0.1008
vn -0.1058 0.9898 -0.0950
vn -0.1002 0.9898 0.1008
vn 0.0000 -1.0000 0.0000
vn 0.0000 -1.0000 0.0002
vn 0.0000 -1.0000 0.0005
vn 0.0000 -1.0000 0.0004
vn 0.0000 -1.0000 -0.0002
vn 0.0000 -1.0000 -0.0005
vn -0.0484 0.0546 0.9973
vn -0.0465 0.0000 0.9989
vn 0.1032 0.0000 0.9947
vn 0.1050 0.0546 0.9930
vn 0.9978 0.0517 0.0406
vn 0.9992 0.0000 0.0388
vn 0.9954 0.0000 -0.0955
vn 0.9939 0.0517 -0.0973
vn -0.9978 0.0517 -0.0406
vn -0.9992 0.0000 -0.0388
vn -0.9954 0.0000 0.0955
vn -0.9939 0.0517 0.0973
vn 0.0484 0.0546 -0.9973
vn 0.0465 0.0000 -0.9989
vn -0.1032 0.0000 -0.9947
vn -0.1050 0.0546 -0.9930
vn -0.4278 0.8969 0.1120
vn -0.3922 0.8310 0.3945
vn -0.0946 0.9041 0.4168
vn -0.2986 0.5801 0.7579
vn -0.0537 0.6077 0.7924
vn -0.8025 0.5894 0.0928
vn -0.7590 0.5677 0.3189
vn -0.6263 0.4577 0.6311
vn 0.1182 0.9041 0.4107
vn 0.4140 0.8310 0.3715
vn 0.4334 0.8969 0.0876
vn 0.7759 0.5677 0.2753
vn 0.8064 0.5894 0.0470
vn 0.0987 0.6076 0.7881
vn 0.3412 0.5801 0.7396
vn 0.6612 0.4577 0.5944
vn 0.4278 0.8969 -0.1120
vn 0.3922 0.8310 -0.3945
vn 0.0946 0.9041 -0.4168
vn 0.2986 0.5801 -0.7579
vn 0.0537 0.6077 -0.7924
vn 0.8025 0.5894 -0.0928
vn 0.7590 0.5677 -0.3189
vn 0.6263 0.4577 -0.6311
vn -0.1182 0.9041 -0.4107
vn -0.4140 0.8310 -0.3715
vn -0.4334 0.8969 -0.0876
vn -0.7759 0.5677 -0.2753
vn -0.8064 0.5894 -0.0470
vn -0.0987 0.6076 -0.7881
vn -0.3412 0.5801 -0.7396
vn -0.6612 0.4577 -0.5944
vn 0.3721 0.0565 0.9265
vn 0.3651 0.2389 0.8998
vn 0.1126 0.2543 0.9605
vn 0.7423 0.0456 0.6685
vn 0.7276 0.1990 0.6565
vn -0.0579 0.2543 0.9654
vn -0.3133 0.2389 0.9191
vn -0.3188 0.0565 0.9461
vn -0.6891 0.1990 0.6968
vn -0.7031 0.0456 0.7096
vn 0.9378 0.0542 -0.3430
vn 0.9130 0.2303 -0.3368
vn 0.9645 0.2425 -0.1042
vn 0.7031 0.0456 -0.7096
vn 0.6891 0.1990 -0.6968
vn 0.9689 0.2425 0.0492
vn 0.9306 0.2303 0.2843
vn 0.9558 0.0542 0.2891
vn -0.9378 0.0542 0.3430
vn -0.9130 0.2303 0.3368
vn -0.9646 0.2425 0.1042
vn -0.9689 0.2425 -0.0492
vn -0.9306 0.2304 -0.2843
vn -0.9558 0.0542 -0.2891
vn -0.7276 0.1990 -0.6565
vn -0.7423 0.0456 -0.6685
vn -0.3721 0.0565 -0.9265
vn -0.3651 0.2389 -0.8998
vn -0.1126 0.2543 -0.9605
vn 0.0579 0.2543 -0.9654
vn 0.3134 0.2389 -0.9191
vn 0.3188 0.0565 -0.9461
vn -0.3230 0.0000 0.9464
vn -0.7041 0.0000 0.7101
vn 0.3763 0.0000 0.9265
vn 0.7433 0.0000 0.6689
vn 0.9562 0.0000 0.2927
vn 0.9380 0.0000 -0.3466
vn 0.7041 0.0000 -0.7101
vn -0.9562 0.0000 -0.2927
vn -0.7433 0.0000 -0.6689
vn -0.9380 0.0000 0.3466
vn 0.3230 0.0000 -0.9464
vn -0.3763 0.0000 -0.9265
usemtl Material_#2093
s 1
f 53//1 57//2 61//3
f 61//3 49//4 53//1
f 41//5 39//6 43//5
f 43//5 42//5 35//5
f 35//5 36//5 34//5
f 43//5 35//5 34//5
f 34//5 38//7 37//5
f 37//5 30//8 31//5
f 34//5 37//5 31//5
f 31//5 29//9 33//5
f 33//5 32//5 45//5
f 31//5 33//5 45//5
f 45//5 46//5 44//5
f 44//5 48//10 47//5
f 45//5 44//5 47//5
f 31//5 45//5 47//5
f 34//5 31//5 47//5
f 43//5 34//5 47//5
f 41//5 43//5 47//5
f 40//5 41//5 47//5
f 69//11 30//12 37//13
f 37//13 65//14 69//11
f 77//15 35//16 42//17
f 42//17 73//18 77//15
f 85//19 45//20 32//21
f 32//21 81//22 85//19
f 93//23 40//24 47//25
f 47//25 89//26 93//23
f 49//4 51//27 52//28
f 52//28 50//29 49//4
f 50//29 52//28 3//30
f 3//30 2//31 50//29
f 51//27 6//32 7//33
f 7//33 52//28 51//27
f 52//28 7//33 1//34
f 1//34 3//30 52//28
f 53//1 55//35 56//36
f 56//36 54//37 53//1
f 54//37 56//36 12//38
f 12//38 11//39 54//37
f 55//35 9//40 10//41
f 10//41 56//36 55//35
f 56//36 10//41 8//42
f 8//42 12//38 56//36
f 57//2 59//43 60//44
f 60//44 58//45 57//2
f 58//45 60//44 19//46
f 19//46 18//47 58//45
f 59//43 16//48 17//49
f 17//49 60//44 59//43
f 60//44 17//49 15//50
f 15//50 19//46 60//44
f 61//3 63//51 64//52
f 64//52 62//53 61//3
f 62//53 64//52 24//54
f 24//54 23//55 62//53
f 63//51 27//56 28//57
f 28//57 64//52 63//51
f 64//52 28//57 22//58
f 22//58 24//54 64//52
f 65//14 67//59 68//60
f 68//60 66//61 65//14
f 66//61 68//60 10//41
f 10//41 9//40 66//61
f 67//59 13//62 14//63
f 14//63 68//60 67//59
f 68//60 14//63 8//42
f 8//42 10//41 68//60
f 69//11 71//64 72//65
f 72//65 70//66 69//11
f 70//66 72//65 5//67
f 5//67 4//68 70//66
f 71//64 2//31 3//30
f 3//30 72//65 71//64
f 72//65 3//30 1//34
f 1//34 5//67 72//65
f 73//18 75//69 76//70
f 76//70 74//71 73//18
f 74//71 76//70 17//49
f 17//49 16//48 74//71
f 75//69 20//72 21//73
f 21//73 76//70 75//69
f 76//70 21//73 15//50
f 15//50 17//49 76//70
f 77//15 79//74 80//75
f 80//75 78//76 77//15
f 78//76 80//75 14//63
f 14//63 13//62 78//76
f 79//74 11//39 12//38
f 12//38 80//75 79//74
f 80//75 12//38 8//42
f 8//42 14//63 80//75
f 81//22 83//77 84//78
f 84//78 82//79 81//22
f 82//79 84//78 7//33
f 7//33 6//32 82//79
f 83//77 4//68 5//67
f 5//67 84//78 83//77
f 84//78 5//67 1//34
f 1//34 7//33 84//78
f 85//19 87//80 88//81
f 88//81 86//82 85//19
f 86//82 88//81 26//83
f 26//83 25//84 86//82
f 87//80 23//55 24//54
f 24//54 88//81 87//80
f 88//81 24//54 22//58
f 22//58 26//83 88//81
f 89//26 91//85 92//86
f 92//86 90//87 89//26
f 90//87 92//86 28//57
f 28//57 27//56 90//87
f 91//85 25//84 26//83
f 26//83 92//86 91//85
f 92//86 26//83 22//58
f 22//58 28//57 92//86
f 93//23 95//88 96//89
f 96//89 94//90 93//23
f 94//90 96//89 21//73
f 21//73 20//72 94//90
f 95//88 18//47 19//46
f 19//46 96//89 95//88
f 96//89 19//46 15//50
f 15//50 21//73 96//89
f 53//1 49//4 50//29
f 50//29 55//35 53//1
f 55//35 50//29 2//31
f 2//31 9//40 55//35
f 57//2 53//1 54//37
f 54//37 59//43 57//2
f 59//43 54//37 11//39
f 11//39 16//48 59//43
f 61//3 57//2 58//45
f 58//45 63//51 61//3
f 63//51 58//45 18//47
f 18//47 27//56 63//51
f 49//4 61//3 62//53
f 62//53 51//27 49//4
f 51//27 62//53 23//55
f 23//55 6//32 51//27
f 69//11 65//14 66//61
f 66//61 71//64 69//11
f 71//64 66//61 9//40
f 9//40 2//31 71//64
f 30//12 69//11 70//66
f 70//66 31//91 30//12
f 31//91 70//66 4//68
f 4//68 29//92 31//91
f 65//14 37//13 38//93
f 38//93 67//59 65//14
f 67//59 38//93 34//94
f 34//94 13//62 67//59
f 77//15 73//18 74//71
f 74//71 79//74 77//15
f 79//74 74//71 16//48
f 16//48 11//39 79//74
f 35//16 77//15 78//76
f 78//76 36//95 35//16
f 36//95 78//76 13//62
f 13//62 34//94 36//95
f 73//18 42//17 43//96
f 43//96 75//69 73//18
f 75//69 43//96 39//97
f 39//97 20//72 75//69
f 85//19 81//22 82//79
f 82//79 87//80 85//19
f 87//80 82//79 6//32
f 6//32 23//55 87//80
f 45//20 85//19 86//82
f 86//82 46//98 45//20
f 46//98 86//82 25//84
f 25//84 44//99 46//98
f 81//22 32//21 33//100
f 33//100 83//77 81//22
f 83//77 33//100 29//92
f 29//92 4//68 83//77
f 93//23 89//26 90//87
f 90//87 95//88 93//23
f 95//88 90//87 27//56
f 27//56 18//47 95//88
f 40//24 93//23 94//90
f 94//90 41//101 40//24
f 41//101 94//90 20//72
f 20//72 39//97 41//101
f 89//26 47//25 48//102
f 48//102 91//85 89//26
f 91//85 48//102 44//99
f 44//99 25//84 91//85
